/* XPM */
static char *c165d43a663c474880a999989ee5c91c54N81GFrj2ziVGUD[] = {
/* columns rows colors chars-per-pixel */
"96 96 6 1 ",
"  c None",
". c #73533C",
"X c #2C6B48",
"o c #815E43",
"O c #8E6444",
"+ c #438144",
/* pixels */
"oooOOoooooooooooooooooooooooooooooooooooo++oooooooooooooooooooooooooooooo++ooooooooooooooooooooo",
"ooooooooo..Oooooooooooooooooooooo...Oooo+Xooooooooooooooooooooooo...Oooo+Xoooooooooooooooooooooo",
"oooooooooOOooooooOOooooooooo+oooooOOooo++ooooooooOOooooooooo+oooooOOooo++oooooooooooooooooo..Ooo",
"oooooooooooooooooooooo.....+Xoooooooooo+Xo...Ooooooooo.....+Xoooooooooo+Xo...Ooooooooooooooooooo",
"oooooooooooooooooooooooo..+Xoo+oo+ooooo+XooOOo+ooooooooo..+Xoo+oo+ooooo+XooOOo+oo...Oooooooooooo",
"ooooooooooooooooooooooooo++Xoo+oo+oooo++ooo+oo++ooooooooo++Xoo+oo+oooo++ooo+oo++oooOoooooooooooo",
"ooooooooooooOOOooo+ooooo++Xooo+oo+o.oo+X.o++oo+Xoo+ooooo++Xooo+oo+o.oo+X.o++oo+XooooooooXooooooo",
"oooooOOOoooooooooo+.oooo++X.o+Xoo+..oo+X..++.o+Xoo+.oooo++X.o+Xoo+..oo+X..++.o+X.oo+oooo+oooo...",
".Oooooooooo+oooo..+....++X..++X..+X.o++X..+X..+X..+....++X..++X..+X.o++X..+X..+X..o+Xoo+Xo......",
"ooooooooooo+ooooX.+X.XX+XX++++XX+++..++X.++X..+XX.+X.XX+XX++++XX+++..++X.++X..+X.oo++oo+Xo+XOOOO",
"oooooooo..+X..+.X.+XXX+XXX+++XXX++X++++X+++X.++XX.+XXX+XXX+++XXX++X++++X+++X.++X..o++.o+X+Xooooo",
"ooooo.X++X+XXX+XX++XX+XX++++XXX++XX+++X++++X+++XX++XX+XX++++XXX++XX+++X++++X+++XX.++X.++X+Xooooo",
"oooo.X++++X+X++X+++XX++++++XX+X++X+++X++++XX+++X+++XX++++++XX+X++X+++X++++XX+++X+X++X.++X+X.oooo",
"Ooo.X+X+XX++++XX++X+++++X+X++++++++++++X+XX+++++++X+++++X+X++++++++++++X+XX++++++++++X++X+X.oooO",
"oo.++X+XX++++XX+X++++++X++++++++++++++X+++++++++X++++++X++++++++++++++X++++++++++++++X+X+++X.ooo",
"oo++XXX+++++X++++++++++X+++++++++++++++++++++X+X+++++++X+++++++++++++++++++++X+X++++X++X+++X.ooo",
"ooX+X++X++++++++++++++++++++++++++++++++++++++++++++++++++++++++++++++++++++++++++++++X++X+X.ooo",
"ooX+X+X++++++++++++++++++++++++++++++++++++++++++++++++++++++++++++++++++++++++++++++++++++X.ooo",
"oo+XX+X+++++++++++++++++++++++++++++++++++++++++++++++++++++++++++++++++++++++++++++++++X+X..oo.",
"o++X+X+++++++++++++++++++++++++++++++++++++++++++++++++++++++++++++++++++++++++++++++++X++X.oooo",
"oX+X+++++++++++++++++++++++++++++++++++++++++++++++++++++++++++++++++++++++++++++++++++X++X.+Xoo",
"o.+X+++++X++++++++++++++++++++++++++++++++++++++++++++++++++++++++++++++++++++++++++++++++X+Xooo",
"o.XX+++XX+++++++++++++++++++++++++++++++++++++++++++++++++++++++++++++++++++++++++++++X++XX+o.oo",
"oo.X++XX+++++++++++++++++++++++++++++++++++++++++++++++++++++++++++++++++++++++++++++X++XX+X.ooo",
"oo.X++X++++++++X+++++++++++++++++++++++++++++++++++++++++++++++++++++++++++++++++++++++XXX+X.ooo",
"oo..+XX+X+++++X+++++++++++++++++++++++++++++++++++++++++++++++++++++++++++++++++++++++X+X+X..ooo",
"o.o.XX+X++++++X++++++++++++++++++++++++++++++++++++++++++++++++++++++++++++++++++X++++++X+X.oooo",
"ooo.X+XX++++++++++++++++++++++++++++++++++++++++++++++++++++++++++++++++++++++++X++++++X++X.o+oo",
"oooo.+X++++++++++++++++++++++++++++++++++++++++++++++++++++++++++++++++++++++++++++++++X++X.+Xoo",
"oooo.+X+++X+++++++++++++++++++++++++++++++++++++++++++++++++++++++++++++++++++++++++++++++.+Xooo",
"oooo.X+++X++++++++++++++++++++++++++++++++++++++++++++++++++++++++++++++++++++++++++++++++.+Xo.o",
"o.o..++++X+++++++++++++++++++++++++++++++++++++++++++++++++++++++++++++++++++++++++++++++X+Xo.oo",
"oo..X+X+X++++++++++++++++++++++++++++++++++++++++++++++++++++++++++++++++++++++++++++++++XXX..oo",
"oo..XX+X++++++++++++++++++++++++++++++++++++++++++++++++++++++++++++++++++++++++++++++X++X+..ooo",
"+oo.XX+X+++++++++++++++++++++++++++++++++++++++++++++++++++++++++++++++++++++++++++++X++X++.ooo+",
"X+o.X+X++++++++++++++++++++++++++++++++++++++++++++++++++++++++++++++++++++++++++++++X++++X.o++X",
".X+.X+X+++++++++++++++++++++++++++++++++++++++++++++++++++++++++++++++++++++++++++++++++++X.++Xo",
"o.X+++X++++++++++++++++++++++++++++++++++++++++++++++++++++++++++++++++++++++++++++++++++X..++o.",
"o.X+++++++++++++++++++++++++++++++++++++++++++++++++++++++++++++++++++++++++++++++++++++XX.++X.o",
"o.XX+++++++++X++++++++++++++++++++++++++++++++++++++++++++++++++++++++++++++++++++++++++X+.++X.o",
"o.XX++++++++X+++++++++++++++++++++++++++++++++++++++++++++++++++++++++++++++++++++++X++++X++X.oo",
"o.X+XX++X+++X++++++++++++++++++++++++++++++++++++++++++++++++++++++++++++++++++++++X++++X+++X.oo",
"ooX+XX++X+++++++++++++++++++++++++++++++++++++++++++++++++++++++++++++++++++++++++X+++++++++..oo",
"oo.X.X++++++++++++++++++++++++++++++++++++++++++++++++++++++++++++++++++++++++++++X+++++++++.ooo",
"ooo.X+X++++++++++++++++++++++++++++++++++++++++++++++++++++++++++++++++++++++++++++++++++X+X+.oo",
"OooX+X++++X+++++++++++++++++++++++++++++++++++++++++++++++++++++++++++++++++++++++++++++X+X+X.oo",
"oooX+X+++X+++++++++++++++++++++++++++++++++++++++++++++++++++++++++++++++++++++++++++++X++X+X.oo",
"oo.+X++++++++++++++++++++++++++++++++++++++++++++++++++++++++++++++++++++++++++++++++++X+XXX..oo",
"ooX+X++X++++++++++++++++++++++++++++++++++++++++++++++++++++++++++++++++++++++++++++++X++X+X.ooo",
"ooX+X+X++++++++++++++++++++++++++++++++++++++++++++++++++++++++++++++++++++++++++++++++++++X.ooo",
"oo+XX+X+++++++++++++++++++++++++++++++++++++++++++++++++++++++++++++++++++++++++++++++++X+X..oo.",
"o++X+X+++++++++++++++++++++++++++++++++++++++++++++++++++++++++++++++++++++++++++++++++X++X.oooo",
"oX+X+++++++++++++++++++++++++++++++++++++++++++++++++++++++++++++++++++++++++++++++++++X++X.+Xoo",
"o.+X+++++X++++++++++++++++++++++++++++++++++++++++++++++++++++++++++++++++++++++++++++++++X+Xooo",
"o.XX+++XX+++++++++++++++++++++++++++++++++++++++++++++++++++++++++++++++++++++++++++++X++XX+o.oo",
"oo.X++XX+++++++++++++++++++++++++++++++++++++++++++++++++++++++++++++++++++++++++++++X++XX+X.ooo",
"oo.X++X++++++++X+++++++++++++++++++++++++++++++++++++++++++++++++++++++++++++++++++++++XXX+X.ooo",
"oo..+XX+X+++++X+++++++++++++++++++++++++++++++++++++++++++++++++++++++++++++++++++++++X+X+X..ooo",
"o.o.XX+X++++++X++++++++++++++++++++++++++++++++++++++++++++++++++++++++++++++++++X++++++X+X.oooo",
"ooo.X+XX++++++++++++++++++++++++++++++++++++++++++++++++++++++++++++++++++++++++X++++++X++X.o+oo",
"oooo.+X++++++++++++++++++++++++++++++++++++++++++++++++++++++++++++++++++++++++++++++++X++X.+Xoo",
"oooo.+X+++X+++++++++++++++++++++++++++++++++++++++++++++++++++++++++++++++++++++++++++++++.+Xooo",
"oooo.X+++X++++++++++++++++++++++++++++++++++++++++++++++++++++++++++++++++++++++++++++++++.+Xo.o",
"o.o..++++X+++++++++++++++++++++++++++++++++++++++++++++++++++++++++++++++++++++++++++++++X+Xo.oo",
"oo..X+X+X++++++++++++++++++++++++++++++++++++++++++++++++++++++++++++++++++++++++++++++++XXX..oo",
"oo..XX+X++++++++++++++++++++++++++++++++++++++++++++++++++++++++++++++++++++++++++++++X++X+..ooo",
"+oo.XX+X+++++++++++++++++++++++++++++++++++++++++++++++++++++++++++++++++++++++++++++X++X++.ooo+",
"X+o.X+X++++++++++++++++++++++++++++++++++++++++++++++++++++++++++++++++++++++++++++++X++++X.o++X",
".X+.X+X+++++++++++++++++++++++++++++++++++++++++++++++++++++++++++++++++++++++++++++++++++X.++Xo",
"o.X+++X++++++++++++++++++++++++++++++++++++++++++++++++++++++++++++++++++++++++++++++++++X..++o.",
"o.X+++++++++++++++++++++++++++++++++++++++++++++++++++++++++++++++++++++++++++++++++++++XX.++X.o",
"o.XX+++++++++X++++++++++++++++++++++++++++++++++++++++++++++++++++++++++++++++++++++++++X+.++X.o",
"o.XX++++++++X+++++++++++++++++++++++++++++++++++++++++++++++++++++++++++++++++++++++X++++X++X.oo",
"o.X+XX++X+++X++++++++++++++++++++++++++++++++++++++++++++++++++++++++++++++++++++++X++++X+++X.oo",
"ooX+XX++X+++++++++++++++++++++++++++++++++++++++++++++++++++++++++++++++++++++++++X+++++++++..oo",
"oo.X.X++++++++++++++++++++++++++++++++++++++++++++++++++++++++++++++++++++++++++++X+++++++++.ooo",
"ooo.X+X++++++++++++++++++++++++++++++++++++++++++++++++++++++++++++++++++++++++++++++++++X+X+.oo",
"OooX+X++++X+++++++++++++++++++++++++++++++++++++++++++++++++++++++++++++++++++++++++++++X+X+X.oo",
"oooX+X+++X+++++++++++++++++++++++++++++++++++++++++++++++++++++++++++++++++++++++++++++X++X+X.oo",
"oo.+X++++++++++++++++++++++++++++++++++++++++++++++++++++++++++++++++++++++++++++++++++X+XXX..oo",
"oo.X++X++++++++++++X+++++++++++++++++++++X+++++++++X+++++++++++++++++++++X+++++++++++++++++X.ooo",
"...X+XX+++++++++++X+++++++++++++++++++++X+++++++++X+++++++++++++++++++++X++++++++++++++++XX..oo.",
"oO.X+X+++X+++++++++++++X++++++X++++++++X+++++++++++++++X++++++X++++++++X+++++++++++X++XXXXX.oooo",
"oo.XX+++X+++X++++++++++X+X+++X+++++X+++X++++++X++++++++X+X+++X+++++X+++X++++++X+++X++X+XXX.ooooo",
"ooo..X+X+++X+++X++++++XX+X+++X+++X++X++++++++X++++++++XX+X+++X+++X++X++++++++X++++++++XXXX.ooooo",
"ooOO..X++XX+++X+++X+++XX+X+XX++++X+XX+++++++X+++++X+++XX+X+XX++++X+XX+++++++X++++++++X++X....ooo",
"oooo..X+XX+++X++++X++XX++XX+X++++XX+XX+++X+XX+++++X++XX++XX+X++++XX+XX+++X+XX+++++++X++XX..ooooo",
"ooooo..XX+X+XX+++XX++XXXXXX+XX+X+XX+XX++X++XX++X+XX++XXXXXX+XX+X+XX+XX++X++XX++X+++XX+XX.oooOOoo",
"ooo..Oo....XXX++XXXXX.....X+..XX+XX+XX++X+XXX+X+XXXXX.....X+..XX+XX+XX++X+XXX+X+++XX+X..oooooooo",
"ooooOooo......XXXX........+X....+X++XX++++XX+XX+XX........+X....+X++XX++++XX+XX++XXXX....ooooooo",
"ooooooooo..o..........oo..X.....X++XXX+++XXXXX.X......oo..X.....X++XXX+++XXXXX.XXXX...oooooooooo",
"oooooo..o.oooooo.o...oooo........+X...XX+XXX.....o...oooo........+X...XX+XXX........oooooooooooo",
"ooooooooooooooooo.oo.oooo..ooooo.X.oo...+.......o.oo.oooo..ooooo.X.oo...+........oooo.......Oooo",
"......OoooooOOoo..ooooooooooooooo.oooo..X..ooooo..ooooooooooooooo.oooo..X..oooooo..oooO...Ooooo.",
"O...Ooooooooooooo.oooooo.oooooooooooooo...ooooooo.oooooo.oooooooooooooo...ooooooooooooooOOoooooo",
"ooOOoooooooooooooooOOOoooooooooooooooooo.ooooooooooOOOoooooooooooooooooo.ooooooooooooooooooooooo"
};
