/* XPM */
static char *_bcb6ab36c754936cc1d96e4442c15ecjGfLYErlWrm00dO4[] = {
/* columns rows colors chars-per-pixel */
"96 96 14 1 ",
"  c None",
". c gray26",
"X c #5D4147",
"o c #505050",
"O c #626262",
"+ c #727272",
"@ c #BF1E1E",
"# c #CE3C14",
"$ c #DA5218",
"% c #D2533A",
"& c #F97E2A",
"* c #8E2847",
"= c #974646",
"- c #9D594C",
/* pixels */
"OOOOOOOO-=*=-OO-==*=OOOOOOOOOO=O-OOOOOO-o==oOOOoOO=*OOOOOOOOOOXOOOOOOOOO-o=-OOOOO=**OOOOOOOOOOOo",
"oOOOOOO-%=**====****-OOOOOOOOO-=%-OOOO-o=*OOoooO==**-OOOOOOOOX%O-OOOOOOO-o*%-====***-OOOOOOOOOOo",
"oooO--%%=@*=OOOX***O-OOOOOOOOO-o=%%---=**OOOOOO*=***-OOOOOO-=X=%%OOOOO-%=@@**%--***=-OOOOOOOOOOo",
"OoOoo-=**@*=OOOOX*OO*-OOOOOO--o==---==**=%OO-%-=****%-OOOO-=%%*==%%=%%%==***@****@**%-OOOOOOOOoO",
"O--%o-==*@@*=%OO=X-%*=-%%%--oX=====****--=%%-===*==**%-OO-%**@#X====**@=@***@@@==***-%-OOOOOooOO",
"OOO-%===*@@**=%%**=***==XXXXX********==-==*==***--==**=%%%**@#@@@@******@@@@@@=**==*ooo%%-Ooo-OO",
"OOOO--=**@@@@@*******======****@#**==-==**@**#**---==*****@@##@#@*********@@#@***OOO=**oooo*-OOO",
"OOOOO%=@@@@#$#***==***********@@#@******@@@#$#@*=--=**@@@####$$##@******@@@#$#**=%OOOO====*--OOO",
"OOOOO%=@@##$$##@@-===*********@@$$#@@######$$##@****@@@###$&####$$#@@##*=***$##@=-%-===**==%OOOO",
"OOOOO-==$$&&$$##@**---===**@@@@@********$$&&$$##@@@@@####&&###****@@=**@-=***$##@===OOOOo*=%-OOO",
"OOOOOO===##$$#$####****@@***@************##$$#$#######$#&$#@******@@-=**@-==***####OOOOOO=*=-OOO",
"OOOOO--===##&$$$@@@@@@****@*****@*********##&$$$@@@@@@####******@*@@-=****--==**#@=-OOOOO=**%OOO",
"OOOOO%-===*$&#*****@@*#@@@*******@@********$&#*****@@*##$#*******@@@*=*****$&#@*@#==--OO====%-OO",
"OOOOO--===*#$****@@***#$$#@*******@@*******#$****@@***#$$#@*******@@*-=****#$@**@#@====@=-O==-OO",
"OOO--======#$*@@*****@#$&#@@********@******#$*@@*****@#$&#@@********@*-==**#$@**@@#@@@@=-OOO=%-O",
"OO--%===***###@@@@@@@#$&$$#@@@*************###@@@@@@@#$&$$#@@@*************###@@@#####@=-OOOO=%O",
"O--%===***@#$####$$$#####$#$##@@@*********@#$####$$$#####$#$##@@@*********@#$####$$$#@##=-OO==%O",
"=%%==@@@@@##&#$#$####******#$##@@@@@@@@@@@##&#$#$####******#$##@@@@@@@@@@@##&#$#$####*==*=====X%",
"O=*=@@@####$$$&$$#*********#######@@@@@####$$$&$$#*********#######@@@@@####$$$&$$#==*-===*==*XXo",
"O-=@=-=*#$$###$##**********#$$#$$$#######$$###$##**********#$$#$$$#######$$###$##==**-====**=Xo-",
"OO-===-=*$###$##***********##$$&##$$$$&&&$###$##***********##$$&##$$$$&&&$###$##*=***=-===*=Xo-O",
"OO-*==***#$&&$$#*********@@###&$$######$$#$&&$$#*********@@###&$$######$$#$&&$$#*=****=--*===oOO",
"OOO-*@@####$$$&#*******@@@###$$###**@@@####$$$&#*******@@@###$$###**@@@####$$$&#*-=****@@***==-O",
"OOO%=@@***##$##$@******@###$$$##**********##$##$@******@###$$$##**********##$##$@=-****@###==%-O",
"OO-%-@@***#$#***#@***@@##$$#$##***********#$#***#@***@@##$$#$##***********#$#***#@***@@##$*=%---",
"OO%=-=@**##*****@#@@@###$$#$$#***********##*****@#@@@###$$#$$#***********##*****@#@@@###$$==%---",
"O-%=-=@*@#******@####$$&&&$$#@**********@#******@####$$&&&$$#@**********@#******@####$$&&#==---O",
"O%====@@#*******@#$$&&$$$$###@*******@@@#*******@#$$&&$$$$###@*******@@@#*******@#$$&&$$$*=o---O",
"-*==-=@##******@#$$$$####&$$##@@@@@@@@@##******@#$$$$####&$$##@@@@@@@@@##******@#$$$$###***=%-OO",
"O=*=-=*$$#@***@$$@@******#$&$##@@@@@@@#$$#@***@$$@@******#$&$##@@@@@@@#$$#@***@$$@@********=o-OO",
"O-=*=**$$$#@@@#$*********@###$&&$#####$$$$#@@@#$*********@###$&&$#####$$$$#@@@#$***********=o%O%",
"OO=**===**@#$$$**********@@@@@##$&$$$$#***@#$$$**********@@@@@##$&$$$$#***@#$$$**********@**=o-%",
"OO%*===--=*@$$**********@@*****@#$&&$******@$$**********@@*****@#$&&$******@$$**********@@**==o%",
"OO%====--=*@$#*********@@********#$$#******@$#*********@@********#$$#******@$#*********@@***=**=",
"OO=====--=@@$@******@@@@*********@##@****@@@$@******@@@@*********@##@****@@@$@******@@@@***=@@@*",
"-====*===***#@@@@@@@@************@###@@*****#@@@@@@@@************@###@@*****#@@@@@@@@******@==-O",
"OO-===******#@@**********@*****@@##@********#@@**********@*****@@##@********#@@**********@*==%OO",
"OOO-==@*****#@***********@@@@@@@#***********#@***********@@@@@@@#***********#@***********@===-OO",
"OOOO===@**@@##**********@#@@@@@##*********@@##**********@#@@@@@##*********@@##**********@#==%OOO",
"OOOOO===@@@#$#********@@@####$$##@******@@@#$#********@@@####$$##@******@@@#$#********@@@#==%-OO",
"OOOOO===@@#$$##@@@@@@@@###$&####$$#@@######$$##@@@@@@@@###$&####$$#@@######$$##@@@@@@@@###==%-OO",
"OOOO-===@#$&$$##@@@@@####&&###**********$$&&$$##@@@@@####&&###**********$$&&$$##@@@@@####&===-OO",
"OOOO%===@@#$$#$#######$#&$#@*************##$$#$#######$#&$#@*************##$$#$#######$#&$#=-%-O",
"OOO-%==@**@#&$$$@@@@@@####******@*********##&$$$@@@@@@####******@*********##&$$$@@@@@@####*==%-O",
"OO-%===****$&#*****@@*##$#*******@@********$&#*****@@*##$#*******@@********$&#*****@@*##$#*===%O",
"O-%==******#$****@@***#$$#@*******@@*******#$****@@***#$$#@*******@@*******#$****@@***#$$#@====O",
"--==%==****#$*@@*****@#$&#@@********@******#$*@@*****@#$&#@@********@******#$*@@*****@#$&#@@==%O",
"===O-===***###@@@@@@@#$&$$#@@@*************###@@@@@@@#$&$$#@@@*************###@@@@@@@#$&$$#@@-%O",
"ooOOO-==**@#$####$$$#####$#$##@@@*********@#$####$$$#####$#$##@@@*********@#$####$$$#####$#$@@=-",
"oOOOO-==@@##&#$#$####******#$##@@@@@@@@@@@##&#$#$####*****@#$##@@@@@@@@@@@##&#$#$####******#@=OO",
"OoO--===###$$$&$$#*********#######@@@@@####$$$&$$#*********#$$$###@@@@@####$$$&$$#*********#=-OO",
"OOo====##$$###$##**********#$$#$@########$$@@#$##**********###@@$$#######$$###$##**********#-OOO",
"OOOO-=&&&$###$##***********##$$&@@#$$$&&&$@@#$##***********##@@@##$$$$&&&$###$##***********=-OOO",
"OOOOO-#$$#$&&$$#*********@@###&$@######$$#$&&$$#*********@@#@@@@$######$$#$&&$$#*********@@@-OOO",
"OOOOOO**###$$$&#*******@@@###$$###**@@@####$$$&#*******@@@#@@@####**@@@####$$$&#*******@@@#@-OOO",
"OOOOOO-***##$##$@******@###$$$##**********##$##$@******@########**********##$##$@******@##@=-OOO",
"OOOOOO%***#$#***#@***@@##$$#$##***********#$#***#@***@@##$$#$##***********#$#***#@***@@##$@=%OOO",
"OOOOO-%***#**==-@#@@@###$$#$$#***********##*****@#@@@###$$#$$#***********##*****@#@@@###$#@@%-OO",
"OOOOO%-******==-@####$$&&&$$#@**********@#******@####$$&&&$$#@**********@#******@####$$&##@@@%--",
"OOO-%-=****===-*@#$$&&$$$$###@*******@@@#*******@#$$&&$$$$###@*******@@@#*******@#$$&&$$$$#@@@@@",
"oo-===****===-*@#$$$$####&$$##@@@@@@@@@##******@#$$$$####&$$##@@@@@@@@@##******@#$$$$####&#@@@@@",
"OO%=******==**@$$@@******#$&$##@@@@@@@#$$#@***@$$@@******#$&$##@@@@@@@#$$#@***@$$@@******#$#@@@-",
"OOO%=******@@@#$*********@###$&&$#####$$$$#@@@#$*********@###$&&$#####$$$$#@@@#$*********@###@=-",
"OOO%=*****=#$$$**********@@@@@##$&$$$$#***@#$$$**********@@@@@##$&$$$$#***@#$$$**********@@@@@=-",
"O-=*=O===**@$$**********@@*****@#$&&$******@$$**********@@*****@#$&&$******@$$*******@--==@@-==%",
"O-*=OOO=***@$#*********@@********#$$#******@$#*********@@********#$$#******@$#******@-=====@===-",
"-==OOO-=***@$@******@@@@*********@##@****@@@$@******@@@@*********@##@****@@@$@*****@@-=====@@===",
"+==O--==****#@@@@@@@@************@###@@*****#@@@@@@@@************@###@@*****#@@@@@@@@======@==-%",
"O+-=*==*****@@@**********@*****@@##@********#@@**********@*****@@##@********#@@*****@@====@==-%O",
"OOO-=***=--=@@***********@@@@@@@#***********#@***********@@@@@@@#***********#@********@@@@==-%OO",
"OOOO-=**==-%=#**********@#@@@@@##*********@@##**********@#@@@@@##*********@@##**********@#=-%-OO",
"OOOO-=*====-%@********@@@####$$##@******@@@#$#********@@@####$$##@******@@@#$#********@@#==%-O-O",
"OOOO-=#====-%@#@@@@@@@@###$&####$$#@@######$$##@@@@@@@@###$&####$$#@@######$$##@@@@@@@@#@==%O%OO",
"OOOO=**====-%@##@@@@@####&&###**********$$&&$$##@@@@@####&&###**********$$&&$$##@@@@@###@==%O-OO",
"OOOOO-*===-%=@$#######$#&$#@*************##$$#$#######$#&$#@*************##$$#$#######$@@==-OOOO",
"OOOOO-**==-=*@$$@@@@@@####******@*********##&$$$@@@@@@####******@*********##&$$$@@@@@@##@@==-OOO",
"OOOOOO***==*@#*****@@*##$#*******@@********$&#*****@@*##$#*******@@********$&#*****@@*#@@*==-OOO",
"OOOOOO-****@@****@@***#$$#@*******@@*******#$****@@***#$$#@*******@@*******#$****@@***#@*%--O-OO",
"OOOOOO%****@$*@@*****@#$&#@@********@******#$*@@*****@#$&#@@********@******#$*@@*****@#=%----o-O",
"OOOOOO%****###@@@@@@@#$&$$#@@@*************###@@@@@@@#$&$$#@@@*************###@@@@@@@#@=%----OoO",
"OOOOO-%=**@#$####$$$#####$#$##@@@*********@#$####$$$#####$$$##@@@*********@#$####$$$#@=%----OOoX",
"O-O--%==@@##&#$#$####==-%*@#$##@@@@@@@@@@@##&#$#$####*****@$$##@@@@@@@@@@@##&#$#$##@@*=%---OOXXo",
"OO-===@=#++%%-&$$#*==***=%=#######@@@@@####$$$&$$#*********#$#####@@@@@###*--=*$$#-=**=-=OOOoXXo",
"OOOO-%==++OO-%$##********-=#$$#$$$#######$$###$##**********#$$$$$$#######*-==**##-*****=XXooXo%-",
"OOOOO--&+OOOO-##********==*##$$&##$$$$&&&$###$##***********#$&$&##$$$$&&*-=****#=***=%%---=X=%-O",
"OOOOOO%$+OOOO-$#*********@@###&$$######$$#$&&$$#*==******@@#$$$$$######*-=****$#***=%----O-=o-OO",
"OOOOOO%=OOOOO$&#*******==@###$$###**@@@####$$$&#*===*=*@@**$@@@@##**@**==*****&#***%----OOO=%-OO",
"OOOOOO-===#===#$@****========$##****%--***##$##$@*===**@****%%***=--=**=*****##$@**%---OOOO=%-OO",
"OOOOOO-=======**#@*====--%%===#**%%--==-**#$#***#@***@@**@*%-=%******==***#$#==*#@=---OOOOoX-OOO",
"OOOOOO-=++--%%======++OOOO--%=**--======*###****@#*@@##@@**=-===*******=*##==***@#=-OOOOOOo=-OOO",
"OOOOOO=O+OOOOO%===++OOOOOOOO--**-======*@#*******=#**===@***====********@#******@##-OOOOOoX=OOOO",
"OOOOO==+OOOOOOO-=O+OOOOOOOOOO-%**=====*-%%%*##***#*****-%%=**==******@@@*****=**@#$=-OOooX=XoOOO",
"oooo===OOOOOOOO-O+OOOOOOOOOOOOO%=*****------*####*****%%---=****===%--==*****==##@===---==XXXOOO",
"oOOO-%%=OOOOOOOOO+OOOOOOOOOOOOO----%%-O-----**##*****-%----O=**==%-----O-***%%-=#@@=-%%--%OoXXOO",
"OOOOO++-=OOOOOOOOOOOOOOOOOOOOOOO%-OOOOOo--OO=***=***-%O---OOO=*=%-----OOO-*OOOO-===@%-OOOOOOoXXO",
"OOOOOOOO-=OOOOOO++++OOOOOOOOOOOO-OOOOOOOoOO.==*%%%%*-OOOOOOOOO=O-O--OOOOOO*OOOO%-%%=-OOOOOOOOoXO"
};
