/* XPM */
static char *_d247785e56546fda6f7654e29b392353oJklwt2nERmFFTK[] = {
/* columns rows colors chars-per-pixel */
"96 96 5 1 ",
"  c None",
". c #216EA0",
"X c #297EAE",
"o c #419FCC",
"O c #F3FFFF",
/* pixels */
"Ooooooooooooooooooooooooooooooooooooooooooooooooooooooooooooooooooooooooooooooooooooooooooooooo.",
"Ooooooooooooooooooooooooooooooooooooooooooooooooooooooooooooooooooooooooooooooooooooooooooooooo.",
"OoooooooooooooooooooooooooooooooooooooooooooooooooooooooooooooooooooooooooooooooooooooooooooOoo.",
"OoooooooooooooooooooooooooooooooooooooooooooooooooooooooooooooooooooooooooooooooooooooooooooOoo.",
"XoooooooooooooooooooooooooooooooooooooooooooooooooooooooooooooooooooooooooooooooooooooooooooOoo.",
"OoooooooooooooooooooooooooooooooooooooooooooooooooooooooooooooooooooooooooooooooooooooooooooOoo.",
"OoooooooooooooooooooooooooooooooooooooooooooooooooooooooooooooooooooooooooooooooooooooooooooOoo.",
"OoooooooooooooooooooooooooooooooooooooooooooooooooooooooooooooooooooooooooooooooooooooooooooOoo.",
"oOooooooooooooooooooooooooooooooooooooooooooooooooooooooooooooooooooooooooooooooooooooooooooOoo.",
"oOooooooooooooooooooooooooooooooooooooooooooooooooooooooooooooooooooooooooooooooooooooooooooOoo.",
"oOooooooooooooooooooooooooooooooooooooooooooooooooooooooooooooooooooooooooooooooooooooooooooOoo.",
"oOoooooooooooooooooooooooooooooooooooooooooooooooooooooooooooooooooooooooooooooooooooooooooooOo.",
"oOoooooooooooooooooooooooooooooooooooooooooooooooooooooooooooooooooooooooooooooooooooooooooooOo.",
"oOoooooooooooooooooooooooooooooooooooooooooooooooooooooooooooooooooooooooooooooooooooooooooooOo.",
"oOoooooooooooooooooooooooooooooooooooooooooooooooooooooooooooooooooooooooooooooooooooooooooooOo.",
"oOOooooooooooooooooooooooooooooooooooooooooooooooooooooooooooooooooooooooooooooooooooooooooooOo.",
"oOOooooooooooooooooooooooooooooooooooooooooooooooooooooooooooooooooooooooooooooooooooooooooooOX.",
"ooOOooooooooooooooooooooooooooooooooooooooooooooooooooooooooooooooooooooooooooooooooooooooooOoX.",
"oooOOooooooooooooooooooooooooooooooooooooooooooooooooooooooooooooooooooooooooooooooooooOooooOX.X",
"ooOoOOooooooooooooooooooooooooooooooooooooooOooooooooooooooooooooooooooooooooooooooooooOoooOOX.X",
"ooOOooOoOoooooooooooooooooooooooooooooooooooOoooooooooooooooooooooooooooooooooOoooooooooooOoOX.X",
"oooOOoOOOOoooooooOOOoOOOoOOOooooooooooooooooOOoooooooooooooooooooooooOooOoooOOoOoooooooOoooOoX.X",
"ooooooooOOOooOooOOOoooooooooOooooooooooooooooOooooooooooooooOoooooOooOOooOOOOoooOooooOoOooOoXX.X",
"ooooooooooOOOOOOOOooooXoooooOOooooooooooooooOOOOooooooooooooOoXOOooOoOOooooooooOoOOOOOoOOoOoX..X",
"oooooooooXooOOOoooooXXXXXoOooOOoooooooooooOOOooooOooooooooooOOoooOOoOOOOooooOOOoooooOooOOOoXX..X",
"oooooooooXXoooooXoXXXXXXXXXooooOoooooooooOOoOooooOOOoooOOooOOOOoooOOooooOOoOooooooooooOOOooXX..X",
"ooooooooo.XXoooXoXX.XXXooXXoooooOOOoooooOOOoooooXooOOOOoOOOoooooooooooooooooooXoooooooooooXX...X",
"ooooooooo.XoXXXooXXXXXooooXXooooooOOOoOoOooo..XXX.XOOOoooooooX.XXooooooXoooooo.ooooooooooXXX...X",
"ooooooooX.XooooooXX.XoooooXXXoXoooooOOoOoooo..XXX.XoOooXXoooXX.XXXoooooXoooooo.XXoooooX.XXXX...X",
"ooooooooX.XXooooXXX..oooooXXXXXXoooooooooooX..XXX.XooooX.XXXX..XXXXoooXXXooooX.ooXooXXX.XXXX...X",
"oooooooXX.XXXooXXXX..XoooXXXXXXXXXX.XooooXXX.XXXX.XXooXX.XXXX..XXXXXXXXXXXXXXX.ooXXXXXX.XXXX...X",
"ooooooXXX.XXXXXXXXX..XXXXXXXXXXXXXX.XXXXXXXX.XX.X.XXXXXX.XXXX.XXXXXXXXXXXXXXXX.XXXXXXXX.XXXX...X",
"oooXXXXXXX..XXXXXXXX.XXXXXXXXXXX...XXXXXXXXX..XXXXXXXXXXXXXXX.XXXXXXXXXXXXX.X...XXXXXXXXXX.....X",
"oooXXXXXXX..XXXXXXXXXXXXXXXXXXXX.X.XXXXXXXXX..X.XXXXXXXXXXXXX.XXXXXXXXXXXXX.X...XXXXXXXXXX.....X",
"oooXoXXXXXX.XXX.XXXX.XXXXXXXXXXX.X.XXXXXXXXX..X.XXXXXXXXXXXXX.XXXXXXXXXXXXX.X...XXXXXXXXXX.....X",
"oooXoXXXXXX.XXX.XXXX.XXXXXXXXXXX.X.XXXXXXXXX..X.XXXXXXXXXXXXX.XXXXXXXXXXXXX.XX..XXXXXXXXXX.X...X",
"oooXoXXXXXX.XXX.XXXX.XXXXXXXXXXX.X.XXXXXXXXX..X.X.XXXXXXXXXXX.XXXXXXXXXXXXX.XX..XXXXXXXXXX.X...X",
"oooXooXXXXX.XXXXXXXX.XXXXXXXXXXX.XXXXXXXXXXXX.X.X.XXXXXXXXXXX.XXXXXXXXXXXXX.XX.XXXXXXXXXXX.X...X",
"oooXooXXXXXXXXXXXXXX.XXXXXXXXXXXXXXXXXXXXXXXX.X.X.XXXXXXXXXXX.XXXXXXXXXXXXX.XX.XXXXXXXXXXX.X...X",
"oooXooXXXXXXXXXXXXX..XXXXXXXXXXXXXXXXXXXXXXXX.X.X.XXXXXXXXXXX.XXXXXXXXXXXXX.XX.XXXXXXXXXXX.X...X",
"oooXooXXX.XXXXXXXXX..XXXXXXXXXXXXXX.XXXXXXXXX.X...XXXXXX.XXXX.XXXXXXXXXXXXX.XXXXXXXXXXXXXXXX...X",
"oooXooXXX.XXXXXXXXX..XXXXXXXXXXXXXX.XXXXXXXXX.X...XXXXXX.XXXX.XXXXXXXXXXXXX.XXXXXXXXXXXXXXXX...X",
"oooXooXXX.XXXXXXXXX..XXXXXXXXXXXXXX.XXXXXXXXX.X...XXXXXX.XXXXXXXXXXXXXXXXXX.XXXXXXXXXXXXXXXX...X",
"oooXooXXX.XXXXXXXXX..XXXXXXXXXXXXXX.XXXXXXXXX.X..XXXXXXX.XXXXXXXXXXXXXXXXXXXXX.XXXXXXXXXXXXX...X",
"oooXXoXXXXXXXXXXXXX.XXXXXXXXXXXXXXXXXXXXXXXXXXX..XXXXXXX.XXXXXXXXXXXXXXXXXXXXX.XXXXXXXXXXXXX...X",
"oooXXoXXX.XXXXXXXXX.XXXXXXXXXXXXXXXXXXXXXXXXXXX..XXXXXXXXXXXXXXXXXXXXXXXXXXXXX.XXXXXXXXXXXXX...X",
"oooXXXXXX.XXXXXXXXX.XXXXXXXXXXXXXoXXXXXXXXXXoXXX.XXXXXXXXXXXooXXXXXXXXXXXXXXoo.XXXXXXXX.XXXX...X",
"oooXXXXXXXXXXXXXXXX.XXXXXXXXXXXXoooXXXXXXXXoooXX.XXXXXXX.XXooooXXXXXXXXXXooooX.XoXXXooX.XXXo...X",
"ooooXXXXXXXXXXXXXXXXXXXXXXXXXXXooXoooXXXXoooooXX.XoXXXXX.XoooooooXXooXXXoooooX.XooooooX.oooX...X",
"oooooXXXXooXXXXXXXXXXXXXXXXXX.ooo.oooooooooooooXXoooXXXXXoooooooooooooooooooXX.XoooooXX.XooX...X",
"oooooooooooooXXXXXXoooXXXXXXooooX.XooooooooooXooooXoooXXooooXXooooooooooooooXX.XXooooXX.XXXX...X",
"ooooooooooXoooXXXXooooooooooooooX.XooooooooooXXooX.XoooooooXX.XooooooooooooXX..XXoooXX..XXXX...X",
"oooXoooooXXooooooooooooooooooooXX.XXoooooooooXXXXX.XXooooXXXX.XXooXXooooooXXX..XXXXXXX..XXXX...X",
"oooXXoooXXXoooooooooXooooooooooXX.XXooooooooXXXXXX.XXXXXXXXX..XXXXX.XooooXXXX..XXXXXXX..XXXX...X",
"oooXXXXXXXXXooooooooXXooooooooXX..XXXoooooooX.XXXX.XXX.XXXXX..XXXXX.XXXXXXXXX...XXXXXX..XXXX...X",
"oooXXXXXXXXXoooooooXXXXoooooo.XX..XXXXoooooXX.XXXX.XXX.XXXXX..XXXXX.XXXXXXXXX...XXXXXX..XX.X...X",
"oooXXXXXXXXXooooooXXXXXXoooX..XX..XXXXXoooXXX.XXXX.XXX.XXXXX..XXXXX.XXXXXXXXX...XXXXXX.XXX.X...X",
"oooXXXXXXXXXXooooXXXXXXXXXXX..XX..XXXXXXXXXXX.XXXX.XXX.XXXXX..XXXXX.XXXXXXXXX.X.XXXXXX.XXX.X...X",
"oooXXXXXXX.XXXXXXXXXXXXXXXXX.XXX..XXXXXXXXXXX.XXXX.XXX.XXXXX..XXXXX.XXXXXXXXX.X.XXXXXX.XXX.X...X",
"oooXXXXXXX.XXXXXXXXX.XXXXXXX.XXX..XXXXXXXXXX..XXXXXXXX.XXXXX..XXXXX.XXXXXXXXX.X.XXXXXX.XXX.X...X",
"oooXXXXXXX.XXXXXXXXXXXXXXXXX.XXX..XXXXXXXXXX..XXXXXXXX.XXXXX..XXXXX.XXXXXXXXX.X.XXXXXXXXXX.X...X",
"oooXXXXXXX.XXXXXXXXX.XXXXXXX.XXX...XXXXXXXXX..XXXXXXXXXXXXXX..XXXXXXXXXXXXXXX.X.XXXXXXXXXX.X...X",
"oooXXXXXXX..XXXXXXXX.XXXXXXXXXXX...XXXXXXXXX..XXXXXXXXXXXXXX..XXXXXXXXXXXXXXX...XXXXXXXXXX.X...X",
"oooXXXXXXX..XXXXXXXX.XXXXXXXXXXX...XXXXXXXXX..XXXXXXXXXXXXXXX.XXXXXXXXXXXXX.X...XXXXXXXXXX.X...X",
"oooXXXXXXX..XXXXXXXX.XXXXXXXXXXX...XXXXXXXXX..XXXXXXXXXXXXXXX.XXXXXXXXXXXXX.X...XXXXXXXXXX.....X",
"oooXXXXXXX..XXXXXXXXXXXXXXXXXXXX.X.XXXXXXXXX..X.XXXXXXXXXXXXX.XXXXXXXXXXXXX.X...XXXXXXXXXX.....X",
"oooXoXXXXXX.XXX.XXXX.XXXXXXXXXXX.X.XXXXXXXXX..X.XXXXXXXXXXXXX.XXXXXXXXXXXXX.X...XXXXXXXXXX.....X",
"oooXoXXXXXX.XXX.XXXX.XXXXXXXXXXX.X.XXXXXXXXX..X.XXXXXXXXXXXXX.XXXXXXXXXXXXX.XX..XXXXXXXXXX.X...X",
"oooXoXXXXXX.XXX.XXXX.XXXXXXXXXXX.X.XXXXXXXXX..X.X.XXXXXXXXXXX.XXXXXXXXXXXXX.XX..XXXXXXXXXX.X...X",
"oooXooXXXXX.XXXXXXXX.XXXXXXXXXXX.XXXXXXXXXXXX.X.X.XXXXXXXXXXX.XXXXXXXXXXXXX.XX.XXXXXXXXXXX.X...X",
"oooXooXXXXXXXXXXXXXX.XXXXXXXXXXXXXXXXXXXXXXXX.X.X.XOXXXXXXXXX.XXXXXXXXXXXXX.XX.XXXXXXXXXXX.X...X",
"oooXooXXXXXXXXXXXXX..XXXXXXXXXXXXXXXXXXXXXXXX.X.X.XXXXXXXXXXX.XXXXXXXXXXXXX.XX.XXXXXXXXXXX.X...X",
"oooXooXXX.XXXXXXXXX..XXXXXXXXXXXXXX.XXXXXXXXX.X...XXXXXX.XXXX.XXXXXXXXXXXXX.XXXXXXXXXXXXXXXX...X",
"oooXooXXX.XXXXXXXXX..XXXXXXXXXXXXXX.XXXXXXXXX.X...XXXXXX.XXXX.XXXXXXXXXXXXX.XXXXXXXXXXXXXXXX...X",
"oooXooXXX.XXXXXXXXX..XXXXXXXXXXXXXX.XXXXXXXXX.X...XXXXXX.XXXXXXXXXXXXXXXXXX.XXXXXXXXXXXXXXXX...X",
"oooXooXXX.XXXXXOXXX..XXXXXXXXXXXXXX.XXXXXXXXX.X..XXXXXXX.XXXXXXXXXXXXXXXXXXXXX.XXXXXXXXXXXXX...X",
"oooOOOOXXXXXXXXXXXX.XXXXXXXXXXXXXXXXXXOOOOXXXXXOOOOXXXXX.XXXXXXXXXXXXXXXXXXXXX.XXXXXXXXXXXXX...X",
"ooOOOOOOX.XXXXXXXXX.OOOOXXXXXOOOXXXXXOOOOOOXXXOOOOOOXXXXXXXXOOOXXXXXXXXXXXXXXX.XXXXXXXXOOOOX...X",
"oOOOOOOOO.XXOOOOXXXOOOOOOXXXOOOOOoXXOOOOOOOOoOOOOOOOOXXXXXXOOOOOXXXXXOXOOXXXoo.XXOOOXXOOOOOO...X",
"OOOOOOOOOOXOOOOOOXOOOOOOOOXOOOOOOOoOOOOOOOOOOOOOOOOOOXXX.XXOOOOOOXXXXXOOOOoooX.XOOOOOOOOOOOOO..X",
"OOOOOOOOOOOOOOOOOOOOOOOOOOOOOOOOOOOOOOOOOOOOOOOOOOOOOXXOOOoOOOOOOOXooOOOOOOooX.OOOOOOOOOOOOOOO.X",
"OOOOOOOOOOOOOOOOOOOOOOOOOOOOOOOOOOOOOOOOOOOOOOOOOOOOOXOOOOOOOOOOOOoooOOOOOOoOOOOOOOOOOOOOOOOOO.X",
"OOOOOOOOOOOOOOOOOOOOOOOOOOOOOOOOOOOOOOOOOOOOOOOOOOOOOOOOOOOOOOOOOOOOoOOOOOOOOOOOOOOOOOOOOOOOOO.X",
"OOOOOOOOOOOOOOOOOOOOOOOOOOOOOOOOOOOOOOOOOOOOOOOOOOOOOOOOOOOOOOOOOOOOOOOOOOOOOOOOOOOOOOOOOOOOOO.X",
"OOOOOOOOOOOOOOOOOOOOOOOOOOOOOOOOOOOOOOOOOOOOOOOOOOOOOOOOOOOOOOOOOOOOOOOOOOOOOOOOOOOOOOOOOOOOOOOX",
"OOOOOOOOOOOOOOOOOOOOOOOOOOOOOOOOOOOOOOOOOOOOOOOOOOOOOOOOOOOOOOOOOOOOOOOOOOOOOOOOOOOOOOOOOOOOOOOX",
"OOOOOOOOOOOOOOOOOOOOOOOOOOOOOOOOOOOOOOOOOOOOOOOOOOOOOOOOOOOOOOOOOOOOOOOOOOOOOOOOOOOOOOOOOOOOOOOX",
"XOOOOOOOOOOOOOOOOOOOOOOOOOOOOOOOOOOOOOOOOOOOOOOOOOOOOXOOOOOOOOOXOOOOOOOOOOOOOOOOOOOOOOOOOOOOOOXX",
"XXOOOOOOOOOOOOOOOOOOOOOOOOOOOOOOOOOOOOOOXXXOOOOOOOOOXXXXXXOOOOOOXXXXOOOOOXXOOOOOOOOOOOOOOOOOOXXX",
"XXXOXXOOOOOXOOOOOOOOOXXXOOOOOOOOXXOOOOOXXXXXXXXXOXXXOXoOOoXXOOXoOOOXXOOOXXXXOOOOXOOOOOOOOOOOOXOo",
"ooXXOOOXXXXXXOOOOOOXXXXXXOOOOOOXOXXXXXXooooXXXOOOoOOooooooooXXXoooooXXXXoooXXXXooXOOOOXXXOOOXXOo",
"oooooooooooooXOOXXXXXooooXXXXXXoooOOOoooOOoooooooooooooooooooooooOoooooooOooooooooXXXXooXXXXoOoo",
"oooooooooooooooooooooooOOOooooooOooooooOooooooooOooooooOOOooooooooOoOOOoooOOoOOooooooooooooooooo",
"ooooooooooooooooooOOOOooooooooooooOOOOoooooooooOooooOOoooooooooooooooooooooooooooooooooooooooooo",
"ooooooooooooooooooooooooooooooooooooooooooOOoooooooooooooooooooooooooooooOoOOOoooooooooooooooooo",
"ooooooooOOoOooOooooooooooOoOooOoooooooooooooooooooooooooooooooooooooooooooooooooooooooooooooOooo"
};
