/* XPM */
static char *_52b349f55df4865fcf2fa4ff04bdb28gSOjwzlDRnebzbT7[] = {
/* columns rows colors chars-per-pixel */
"6 8 81 1 ",
"  c white",
". c black",
"X c #DFDFDF",
"o c gray50",
"O c #5F5F5F",
"+ c #D2D2D2",
"@ c #323232",
"# c gray12",
"$ c gray75",
"% c #3F3F3F",
"& c #9F9F9F",
"* c #989898",
"= c #CBCBCB",
"- c gray90",
"; c gray95",
": c #D8D8D8",
"> c #ECECEC",
", c #808080",
"< c #B2B2B2",
"1 c #656565",
"2 c #191919",
"3 c #2D2D2D",
"4 c #A5A5A5",
"5 c #4C4C4C",
"6 c gray30",
"7 c gray60",
"8 c #848484",
"9 c gray71",
"0 c #F3F3F3",
"q c gray37",
"w c #D5D5D5",
"e c gray81",
"r c #676767",
"t c #E1E1E1",
"y c #E7E7E7",
"u c gray",
"i c #4B4B4B",
"p c gray70",
"a c #A0A0A0",
"s c gray86",
"d c gray93",
"f c #A4A4A4",
"g c #C1C1C1",
"h c gray20",
"j c gray72",
"k c gray40",
"l c #929292",
"z c #6C6C6C",
"x c #464646",
"c c gray80",
"v c gray35",
"b c gray39",
"n c #0C0C0C",
"m c #313131",
"M c gray62",
"N c #979797",
"B c gray7",
"V c #818181",
"C c gray66",
"Z c #C8C8C8",
"A c #FBFBFB",
"S c #222222",
"D c #C0C0C0",
"F c #626262",
"G c #FDFDFD",
"H c #F9F9F9",
"J c #9B9B9B",
"K c gray79",
"L c #CDCDCD",
"P c #B1B1B1",
"I c #9A9A9A",
"U c gray15",
"Y c #2F2F2F",
"T c #0B0B0B",
"R c #515151",
"E c #353535",
"W c gray5",
"Q c DimGray",
"! c #717171",
"~ c #CECECE",
"^ c gray85",
/* pixels */
" #..o ",
".<==1O",
".X  oO",
".X  oO",
".X  oO",
".X  oO",
"hj==o,",
" #..o "
};
