/* XPM */
static char *result[] = {
/* columns rows colors chars-per-pixel */
"70 70 38 1 ",
"  c #6AAB4A",
". c #6BAB4B",
"X c #67B14A",
"o c #66B54A",
"O c #67B54A",
"+ c #67B44B",
"@ c #67B64B",
"# c #66B74B",
"$ c #67B74B",
"% c #67B54C",
"& c #68B24B",
"* c #68B54A",
"= c #68B44B",
"- c #69B44B",
"; c #66B84B",
": c #66B94B",
"> c #67B94B",
", c #65BA4B",
"< c #65BB4B",
"1 c #66BA4B",
"2 c #65BC4B",
"3 c #65BD4B",
"4 c #65BF4B",
"5 c #66B84C",
"6 c #64BE4C",
"7 c #68B84B",
"8 c #62C44B",
"9 c #62C24C",
"0 c #63C24C",
"q c #62C34C",
"w c #63C34C",
"e c #64C34C",
"r c #62C44C",
"t c #63C44C",
"y c #62C54C",
"u c #62C54D",
"i c #62C64C",
"p c None",
/* pixels */
"pppppppppppppppppppppppppppppppppppppppppppppppppppppppppppppppppppppp",
"pppppppppppppppppppppppppppppppppppppppppppppppppppppppppppppppppppppp",
"pppppppppppppppppppppppppppppppppppppppppppppppppppppppppppppppppppppp",
"pppppppppppppppppppppppppppppppppppppppppppppppppppppppppppppppppppppp",
"pppppppppppppppppppppppppppppppppppppppppppppppppppppppppppppppppppppp",
"pppppppppppppppppppppppppppppppppppppppppppppppppppppppppppppppppppppp",
"pppppppppppppppppppppppppppppppppppppppppppppppppppppppppppppppppppppp",
"pppppppppppppppppppppppppppppppppppppppppppppppppppppppppppppppppppppp",
"pppppppppppppppppppppppppppppppppppppppppppppppppppppppppppppppppppppp",
"pppppppppppppppppppppppppppppppppppppppppppppppppppppppppppppppppppppp",
"pppppppppppppppppppppppppppppppppppppppppppppppppppppppppppppppppppppp",
"pppppppppppppppppppppppppppppppppppppppppppppppppppppppppppppppppppppp",
"pppppppppppppppppppppppppp71@>%$O@#*,:$-5opppppppppppppppppppppppppppp",
"ppppppppppppppppppppppppp2yyyyyyyyyyyyyyyyrppppppppppppppppppppppppppp",
"pppppppppppppppppppppppppeyyyyyyyyyyyyyyyyyppppppppppppppppppppppppppp",
"ppppppppppppppppppppppppp3yyyyyyyyyyyyyyyy8ppppppppppppppppppppppppppp",
"ppppppppppppppppppppppppp6yyyyyyyyyyyyyyyyyppppppppppppppppppppppppppp",
"ppppppppppppppppppppppppp,yyyyyyyyyyyyyyyyrppppppppppppppppppppppppppp",
"ppppppppppppppppppppppppppwywywy9yryyyyyyyyppppppppppppppppppppppppppp",
"pppppppppppppppppppppppppppppppppppp yyyyyrppppppppppppppppppppppppppp",
"pppppppppppppppppppppppppppppppppppp;yyyyyyppppppppppppppppppppppppppp",
"pppppppppppppppppppppppppppppppppppp=yyyyyuppppppppppppppppppppppppppp",
"pppppppppppppppppppppppppppppppppppyyyyyyyyppppppppppppppppppppppppppp",
"pppppppppppppppppppppppppppppppppppyyyyyyyyppppppppppppppppppppppppppp",
"pppppppppppppppppppppppppppppppppppyyyyyyyyppppppppppppppppppppppppppp",
"ppppppppppppppppppppppppppppppppp.3yyyyyyyqppppppppppppppppppppppppppp",
"pppppppppppppppppppppppppppppppppyyyyyyyyppppppppppppppppppppppppppppp",
"pppppppppppppppppppppppppppppppppyyyyyyyyppppppppppppppppppppppppppppp",
"pppppppppppppppppppppppppppppppppyyyyyyyyppppppppppppppppppppppppppppp",
"ppppppppppppppppppppppppppppppp<0yyyyyyyrppppppppppppppppppppppppppppp",
"pppppppppppppppppppppppppppppppryyyyyyyppppppppppppppppppppppppppppppp",
"pppppppppppppppppppppppppppppppyyyyyyyyppppppppppppppppppppppppppppppp",
"ppppppppppppppppppppppppppppppptyyyyyyyppppppppppppppppppppppppppppppp",
"pppppppppppppppppppppppppppppppyyyyyyy4ppppppppppppppppppppppppppppppp",
"pppppppppppppppppppppppppppppppiyyyyyppppppppppppppppppppppppppppppppp",
"pppppppppppppppppppppppppppppppyyyyyy+pppppppppppppppppppppppppppppppp",
"pppppppppppppppppppppppppppppppyyyyyy&pppppppppppppppppppppppppppppppp",
"pppppppppppppppppppppppppppppppyyyyyyXpppppppppppppppppppppppppppppppp",
"pppppppppppppppppppppppppppppppyyyyyyOpppppppppppppppppppppppppppppppp",
"pppppppppppppppppppppppppppppppyyyyyyppppppppppppppppppppppppppppppppp",
"pppppppppppppppppppppppppppppppryyyyyppppppppppppppppppppppppppppppppp",
"pppppppppppppppppppppppppppppppppppppppppppppppppppppppppppppppppppppp",
"pppppppppppppppppppppppppppppppppppppppppppppppppppppppppppppppppppppp",
"pppppppppppppppppppppppppppppppppppppppppppppppppppppppppppppppppppppp",
"pppppppppppppppppppppppppppppppppppppppppppppppppppppppppppppppppppppp",
"pppppppppppppppppppppppppppppppppppppppppppppppppppppppppppppppppppppp",
"pppppppppppppppppppppppppppppppppppppppppppppppppppppppppppppppppppppp",
"pppppppppppppppppppppppppppppppppppppppppppppppppppppppppppppppppppppp",
"pppppppppppppppppppppppppppppppppppppppppppppppppppppppppppppppppppppp",
"pppppppppppppppppppppppppppppppppppppppppppppppppppppppppppppppppppppp",
"pppppppppppppppppppppppppppppppppppppppppppppppppppppppppppppppppppppp",
"pppppppppppppppppppppppppppppppppppppppppppppppppppppppppppppppppppppp",
"pppppppppppppppppppppppppppppppppppppppppppppppppppppppppppppppppppppp",
"pppppppppppppppppppppppppppppppppppppppppppppppppppppppppppppppppppppp",
"pppppppppppppppppppppppppppppppppppppppppppppppppppppppppppppppppppppp",
"pppppppppppppppppppppppppppppppppppppppppppppppppppppppppppppppppppppp",
"pppppppppppppppppppppppppppppppppppppppppppppppppppppppppppppppppppppp",
"pppppppppppppppppppppppppppppppppppppppppppppppppppppppppppppppppppppp",
"pppppppppppppppppppppppppppppppppppppppppppppppppppppppppppppppppppppp",
"pppppppppppppppppppppppppppppppppppppppppppppppppppppppppppppppppppppp",
"pppppppppppppppppppppppppppppppppppppppppppppppppppppppppppppppppppppp",
"pppppppppppppppppppppppppppppppppppppppppppppppppppppppppppppppppppppp",
"pppppppppppppppppppppppppppppppppppppppppppppppppppppppppppppppppppppp",
"pppppppppppppppppppppppppppppppppppppppppppppppppppppppppppppppppppppp",
"pppppppppppppppppppppppppppppppppppppppppppppppppppppppppppppppppppppp",
"pppppppppppppppppppppppppppppppppppppppppppppppppppppppppppppppppppppp",
"pppppppppppppppppppppppppppppppppppppppppppppppppppppppppppppppppppppp",
"pppppppppppppppppppppppppppppppppppppppppppppppppppppppppppppppppppppp",
"pppppppppppppppppppppppppppppppppppppppppppppppppppppppppppppppppppppp",
"pppppppppppppppppppppppppppppppppppppppppppppppppppppppppppppppppppppp"
};
