/* XPM */
static char *result[] = {
/* columns rows colors chars-per-pixel */
"70 70 66 1 ",
"  c #6F9D49",
". c #739347",
"X c #739248",
"o c #729749",
"O c #719A49",
"+ c #709D48",
"@ c #6FA049",
"# c #6CA548",
"$ c #6CA649",
"% c #6DA649",
"& c #6DA749",
"* c #6BA94A",
"= c #6AAA4A",
"- c #6CA849",
"; c #6DA94A",
": c #6BAC4B",
"> c #67B54A",
", c #66B54B",
"< c #67B64B",
"1 c #67B74B",
"2 c #69B04A",
"3 c #69B24A",
"4 c #69B34A",
"5 c #68B24B",
"6 c #69B24B",
"7 c #68B34B",
"8 c #6AB24A",
"9 c #6AB34B",
"0 c #68B44A",
"q c #68B54A",
"w c #68B44B",
"e c #69B44B",
"r c #69B54B",
"t c #68B64A",
"y c #68B64B",
"u c #68B74B",
"i c #66B84A",
"p c #66B94A",
"a c #66B84B",
"s c #67B84B",
"d c #66B94B",
"f c #67B94B",
"g c #65BA4A",
"h c #66BA4A",
"j c #67BA4B",
"k c #65BC4B",
"l c #64BD4B",
"z c #65BD4B",
"x c #64BE4B",
"c c #64BE4C",
"v c #64BF4C",
"b c #63C04B",
"n c #63C24B",
"m c #63C34B",
"M c #64C04B",
"N c #64C14B",
"B c #62C44B",
"V c #63C34C",
"C c #64C04C",
"Z c #64C14C",
"A c #64C24C",
"S c #62C44C",
"D c #63C44C",
"F c #62C54C",
"G c #62C64D",
"H c None",
/* pixels */
"HHHHHHHHHHHHHHHHHHHHHHHHHHHHHHHHHHHHHHHHHHHHHHHHHHHHHHHHHHHHHHHHHHHHHH",
"HHHHHHHHHHHHHHHHHHHHHHHHHHHHHHHHHHHHHHHHHHHHHHHHHHHHHHHHHHHHHHHHHHHHHH",
"HHHHHHHHHHHHHHHHHHHHHHHHHHHHHHHHHHHHHHHHHHHHHHHHHHHHHHHHHHHHHHHHHHHHHH",
"HHHHHHHHHHHHHHHHHHHHHHHHHHHHHHHHHHHHHHHHHHHHHHHHHHHHHHHHHHHHHHHHHHHHHH",
"HHHHHHHHHHHHHHHHHHHHHHHHHHHHHHHHHHHHHHHHHHHHHHHHHHHHHHHHHHHHHHHHHHHHHH",
"HHHHHHHHHHHHHHHHHHHHHHHHHHHHHHHHHHHHHHHHHHHHHHHHHHHHHHHHHHHHHHHHHHHHHH",
"HHHHHHHHHHHHHHHHHHHHHHHHHHHHHHHHHHHHHHHHHHHHHHHHHHHHHHHHHHHHHHHHHHHHHH",
"HHHHHHHHHHHHHHHHHHHHHHHHHHHHHHHHHHHHHHHHHHHHHHHHHHHHHHHHHHHHHHHHHHHHHH",
"HHHHHHHHHHHHHHHHHHHHHHHHHHHHHHHHHHHHHHHHHHHHHHHHHHHHHHHHHHHHHHHHHHHHHH",
"HHHHHHHHHHHHHHHHHHHHHHHHHHHHHHHHHHHHHHHHHHHHHHHHHHHHHHHHHHHHHHHHHHHHHH",
"HHHHHHHHHHHHHHHHHHHHHHHHHHHHHHHHHHHHHHHHHHHHHHHHHHHHHHHHHHHHHHHHHHHHHH",
"HHHHHHHHHHHHHHHHHHHHHHHHHHHHHHHHHHHHHHHHHHHHHHHHHHHHHHHHHHHHHHHHHHHHHH",
"HHHHHHHHHHHHHHHHHHHHHHHHHHHHH6y90r8iuy6HHHHHHHHHHHHHHHHHHHHHHHHHHHHHHH",
"HHHHHHHHHHHHHHHHHHHHHHHHHHHHnFFFFFFFFFFGHHHHHHHHHHHHHHHHHHHHHHHHHHHHHH",
"HHHHHHHHHHHHHHHHHHHHHHHHHH:hFFFFFFFFFFFFhHHHHHHHHHHHHHHHHHHHHHHHHHHHHH",
"HHHHHHHHHHHHHHHHHHHHHHHHHHlFFFFFFFFFFFFFFmHHHHHHHHHHHHHHHHHHHHHHHHHHHH",
"HHHHHHHHHHHHHHHHHHHHHHHHHCFFFFFFFFFFFFFFFFC<HHHHHHHHHHHHHHHHHHHHHHHHHH",
"HHHHHHHHHHHHHHHHHHHHHHHH1FFFFFFFFFFFFFFFFFFMHHHHHHHHHHHHHHHHHHHHHHHHHH",
"HHHHHHHHHHHHHHHHHHHHHHHHgFFFFFFFFFFFFFFFFFFFHHHHHHHHHHHHHHHHHHHHHHHHHH",
"HHHHHHHHHHHHHHHHHHHHHHHHqFFFFFFFsHH#FFFFFFFbHHHHHHHHHHHHHHHHHHHHHHHHHH",
"HHHHHHHHHHHHHHHHHHHHHHHHbFFFFFFk%HHXkFFFFFFFHHHHHHHHHHHHHHHHHHHHHHHHHH",
"HHHHHHHHHHHHHHHHHHHHHHHHwFFFFFnHHHHHHdFFFFFNHHHHHHHHHHHHHHHHHHHHHHHHHH",
"HHHHHHHHHHHHHHHHHHHHHHHHpFFFFFFF,HH FFFFFFFFHHHHHHHHHHHHHHHHHHHHHHHHHH",
"HHHHHHHHHHHHHHHHHHHHHHHH3FFFFFFFSo@aFFFFFFFvHHHHHHHHHHHHHHHHHHHHHHHHHH",
"HHHHHHHHHHHHHHHHHHHHHHHHH&FFFFFFFFFFFFFFFF;HHHHHHHHHHHHHHHHHHHHHHHHHHH",
"HHHHHHHHHHHHHHHHHHHHHHHHHHCFFFFFFFFFFFFFFFHHHHHHHHHHHHHHHHHHHHHHHHHHHH",
"HHHHHHHHHHHHHHHHHHHHHHHHHHzFFFFFFFFFFFFFFFHHHHHHHHHHHHHHHHHHHHHHHHHHHH",
"HHHHHHHHHHHHHHHHHHHHHHHH+aFFFFFFFFFFFFFFFFs=HHHHHHHHHHHHHHHHHHHHHHHHHH",
"HHHHHHHHHHHHHHHHHHHHHHHH7FFFFFFFdHH$FFFFFFFcHHHHHHHHHHHHHHHHHHHHHHHHHH",
"HHHHHHHHHHHHHHHHHHHHHHHHfFFFFFFD6HH.BFFFFFFFHHHHHHHHHHHHHHHHHHHHHHHHHH",
"HHHHHHHHHHHHHHHHHHHHHHHHeFFFFFxHHHHHH5FFFFFxHHHHHHHHHHHHHHHHHHHHHHHHHH",
"HHHHHHHHHHHHHHHHHHHHHHHHiFFFFFFHHHHHHfFFFFFFHHHHHHHHHHHHHHHHHHHHHHHHHH",
"HHHHHHHHHHHHHHHHHHHHHHHH4FFFFFcHHHHHH3FFFFFvHHHHHHHHHHHHHHHHHHHHHHHHHH",
"HHHHHHHHHHHHHHHHHHHHHHHHjFFFFFFFtHHOFFFFFFFFHHHHHHHHHHHHHHHHHHHHHHHHHH",
"HHHHHHHHHHHHHHHHHHHHHHHHwFFFFFFFCHH2FFFFFFFAHHHHHHHHHHHHHHHHHHHHHHHHHH",
"HHHHHHHHHHHHHHHHHHHHHHHHdFFFFFFFFFFFFFFFFFFFHHHHHHHHHHHHHHHHHHHHHHHHHH",
"HHHHHHHHHHHHHHHHHHHHHHHH>FFFFFFFFFFFFFFFFFFMHHHHHHHHHHHHHHHHHHHHHHHHHH",
"HHHHHHHHHHHHHHHHHHHHHHHHH-FFFFFFFFFFFFFFFF*HHHHHHHHHHHHHHHHHHHHHHHHHHH",
"HHHHHHHHHHHHHHHHHHHHHHHHHHkFFFFFFFFFFFFFFVHHHHHHHHHHHHHHHHHHHHHHHHHHHH",
"HHHHHHHHHHHHHHHHHHHHHHHHHHHHSFFFFFFFFFFFHHHHHHHHHHHHHHHHHHHHHHHHHHHHHH",
"HHHHHHHHHHHHHHHHHHHHHHHHHHHHZFFFFFFFFFFFHHHHHHHHHHHHHHHHHHHHHHHHHHHHHH",
"HHHHHHHHHHHHHHHHHHHHHHHHHHHHHHHHHHHHHHHHHHHHHHHHHHHHHHHHHHHHHHHHHHHHHH",
"HHHHHHHHHHHHHHHHHHHHHHHHHHHHHHHHHHHHHHHHHHHHHHHHHHHHHHHHHHHHHHHHHHHHHH",
"HHHHHHHHHHHHHHHHHHHHHHHHHHHHHHHHHHHHHHHHHHHHHHHHHHHHHHHHHHHHHHHHHHHHHH",
"HHHHHHHHHHHHHHHHHHHHHHHHHHHHHHHHHHHHHHHHHHHHHHHHHHHHHHHHHHHHHHHHHHHHHH",
"HHHHHHHHHHHHHHHHHHHHHHHHHHHHHHHHHHHHHHHHHHHHHHHHHHHHHHHHHHHHHHHHHHHHHH",
"HHHHHHHHHHHHHHHHHHHHHHHHHHHHHHHHHHHHHHHHHHHHHHHHHHHHHHHHHHHHHHHHHHHHHH",
"HHHHHHHHHHHHHHHHHHHHHHHHHHHHHHHHHHHHHHHHHHHHHHHHHHHHHHHHHHHHHHHHHHHHHH",
"HHHHHHHHHHHHHHHHHHHHHHHHHHHHHHHHHHHHHHHHHHHHHHHHHHHHHHHHHHHHHHHHHHHHHH",
"HHHHHHHHHHHHHHHHHHHHHHHHHHHHHHHHHHHHHHHHHHHHHHHHHHHHHHHHHHHHHHHHHHHHHH",
"HHHHHHHHHHHHHHHHHHHHHHHHHHHHHHHHHHHHHHHHHHHHHHHHHHHHHHHHHHHHHHHHHHHHHH",
"HHHHHHHHHHHHHHHHHHHHHHHHHHHHHHHHHHHHHHHHHHHHHHHHHHHHHHHHHHHHHHHHHHHHHH",
"HHHHHHHHHHHHHHHHHHHHHHHHHHHHHHHHHHHHHHHHHHHHHHHHHHHHHHHHHHHHHHHHHHHHHH",
"HHHHHHHHHHHHHHHHHHHHHHHHHHHHHHHHHHHHHHHHHHHHHHHHHHHHHHHHHHHHHHHHHHHHHH",
"HHHHHHHHHHHHHHHHHHHHHHHHHHHHHHHHHHHHHHHHHHHHHHHHHHHHHHHHHHHHHHHHHHHHHH",
"HHHHHHHHHHHHHHHHHHHHHHHHHHHHHHHHHHHHHHHHHHHHHHHHHHHHHHHHHHHHHHHHHHHHHH",
"HHHHHHHHHHHHHHHHHHHHHHHHHHHHHHHHHHHHHHHHHHHHHHHHHHHHHHHHHHHHHHHHHHHHHH",
"HHHHHHHHHHHHHHHHHHHHHHHHHHHHHHHHHHHHHHHHHHHHHHHHHHHHHHHHHHHHHHHHHHHHHH",
"HHHHHHHHHHHHHHHHHHHHHHHHHHHHHHHHHHHHHHHHHHHHHHHHHHHHHHHHHHHHHHHHHHHHHH",
"HHHHHHHHHHHHHHHHHHHHHHHHHHHHHHHHHHHHHHHHHHHHHHHHHHHHHHHHHHHHHHHHHHHHHH",
"HHHHHHHHHHHHHHHHHHHHHHHHHHHHHHHHHHHHHHHHHHHHHHHHHHHHHHHHHHHHHHHHHHHHHH",
"HHHHHHHHHHHHHHHHHHHHHHHHHHHHHHHHHHHHHHHHHHHHHHHHHHHHHHHHHHHHHHHHHHHHHH",
"HHHHHHHHHHHHHHHHHHHHHHHHHHHHHHHHHHHHHHHHHHHHHHHHHHHHHHHHHHHHHHHHHHHHHH",
"HHHHHHHHHHHHHHHHHHHHHHHHHHHHHHHHHHHHHHHHHHHHHHHHHHHHHHHHHHHHHHHHHHHHHH",
"HHHHHHHHHHHHHHHHHHHHHHHHHHHHHHHHHHHHHHHHHHHHHHHHHHHHHHHHHHHHHHHHHHHHHH",
"HHHHHHHHHHHHHHHHHHHHHHHHHHHHHHHHHHHHHHHHHHHHHHHHHHHHHHHHHHHHHHHHHHHHHH",
"HHHHHHHHHHHHHHHHHHHHHHHHHHHHHHHHHHHHHHHHHHHHHHHHHHHHHHHHHHHHHHHHHHHHHH",
"HHHHHHHHHHHHHHHHHHHHHHHHHHHHHHHHHHHHHHHHHHHHHHHHHHHHHHHHHHHHHHHHHHHHHH",
"HHHHHHHHHHHHHHHHHHHHHHHHHHHHHHHHHHHHHHHHHHHHHHHHHHHHHHHHHHHHHHHHHHHHHH",
"HHHHHHHHHHHHHHHHHHHHHHHHHHHHHHHHHHHHHHHHHHHHHHHHHHHHHHHHHHHHHHHHHHHHHH"
};
