/* XPM */
static char *_e6a47c525a942788032309eb33c57d18zMhRztjJ3zk4EGa[] = {
/* columns rows colors chars-per-pixel */
"96 96 15 1 ",
"  c None",
". c #211F1C",
"X c #413E3E",
"o c #6B4E32",
"O c #7E654B",
"+ c #5B5E67",
"@ c #897D6D",
"# c #9B9283",
"$ c #A8A194",
"% c #B4AEA5",
"& c #BEBCB7",
"* c #C9C8C5",
"= c #D7D6D5",
"- c #EEEEEE",
"; c white",
/* pixels */
"                                                                                                ",
"                                                                                                ",
"                                                                                                ",
"                                                                                                ",
"                                                                                                ",
"                                                                                                ",
"                                                                                                ",
"                                                                                                ",
"                                                                                                ",
"                                                                                                ",
"                                                                                                ",
"                                                                                                ",
"                                                                                                ",
"                                                                                                ",
"                                                                                                ",
"                                                                                                ",
"                                                                                                ",
"                                                                                                ",
"                                                                                                ",
"                                                                                                ",
"                                                                                                ",
"                                                                                                ",
"                                                                                                ",
"                                                                                                ",
"                                                                                                ",
"                                                                                                ",
"                                                                                                ",
"                                                                                                ",
"                                                                                                ",
"                                                                                                ",
"                                                                                                ",
"                                         *****=&&&=                                             ",
"                            &%&&*=**==*%*=*=*%%&*==*===***==-=*                                 ",
"                 *&**&=  =%$%&*&=======%%*==***%*=*&***=======%*=&%&**=-                        ",
"              &==**=*=-====&%$%&***=&*=*&&&*=**%=-&&=&&===$*==&=*#&*%&===%$%=*==                ",
"            +.&=========*===$$&*%===*&==&&****=%==%**&&*==#*=&&=*#$%*==&&$%#$&==*=              ",
"           +X.&=*===========-&&=$&===%*=&&&**==&*=%%**&**=#%*%*=&$#$$&&$$#$%*&#%&$=-&+          ",
"          +...&*==*======*=*-=%=$&*==$&**%&&**=&=*$%&&&**=#&*%&=&##$$&%@$$$%%%$$@**=#+%         ",
"          .X...%*=**=====*=&=-*=&%*=*#&&***&&*=&=&$%&=%&&&$%%&&&&%#$#%$####$$$$#&%*-..+-        ",
"          .....X===*=====&=**====%&&*#%&&&%&&*=%*%$%&*&$&%$$%%%&%##$#$######$$%$*==;XX+X        ",
"         +..X..X.*==*====%=*%*===$&$&#%**&%&&**$*%$$%&*%&$$$$$$%$#$$#$#@#####&**==-XXX+++       ",
"         .........*===-==%=&**==-%*@%$%%&&&&&*&%*&$$$%%%%$$$$$$$$@$#$$#@####*&==--XX.X+@+       ",
"         ........X.%=*===%=&**=====@%$$%%&%&&*%%&%%$$$%$$$@$##$$#@$####@###$&%===++++++++       ",
"         ...........&====%=*&&*=***@%%%%$%&&%*%%%$%$#$$$$$@######@#@@#@@#@$&$**-=.X+X++++       ",
"         ...........&*==*&==&&****&@%$%%%%%%%&$$$%$$@######@#@@$@@@###@#@$#*$&&*.+++++++X       ",
"         ...........$*=*==**&&&&&*%O%%%$$$$$####$$$#@#OO##@@X@O@@@o@##@@@$%%%$%=.+++@+@++       ",
"        @...........+&&*==%%&%%%%@o@#@@OO+@%%O+O+Oo+OO@####@OXoXoOooO@@O@$%#%%&$XXX+++@+X       ",
"        @...........o&&*==*OO++$&*%$$%&&&****==***&&&&%%$%%%%%$##@@@XXXo##%#$$=#XX.XX++++       ",
"        $............$%&*==&*&******&&&****=====***&&&%&%&%%%%$$$#@@@Ooo$#$#%$&X..X.X++++       ",
"         ............$$&&==**&******&&&****==****&*&&&&&&%%%%%$$$$##@@++##$#$$&XX+@++++++       ",
"         ............#%&&*==&&&*&&&&&&*****=**&&&&&&&&&&&&&&%%%%%$$$#@@@$#$#$$*X.X++++@++       ",
"         ............@$%&===*&**&&*&*&*==*****&&**&*&&&*&&&%%%%%%%$$$@@@##$$$$%XX..XX+++X       ",
"         +...........+#%$***%&&%***&&&**=**&*&*&****&*&&&&%&%%%%$$$##+@+##$$%%*..+++++++X       ",
"         -...........X##$*==*&&&&&&*&************&**&&&&&&&&%&%%%$##@@++$#$#$$%.X+X+++++@       ",
"         +............#$%*&*=%&&*&&&&&***********&&&*&&&&&&%&&%%$$@#@@@+#$#$$%-XXXXX++++;       ",
"         .o...........#$%**=*&*&%&&&&&***&&*******&&*&*&&&&&%%%$$$###@O+O$#$$%-X..XX+X+%        ",
"         *Xo..........O#%*&=&&*&&&&%&&&&&*%*&&&**&&&&&&&&%%%%%$$$##+#@OO@$###$+XX.X+.X#$        ",
"          ooo..........#$%*=&**&&&&&&&&&&*&&&&&&&&&&*&&%%%%%%%$#$###@@@+@#@#$%...X.XX#%#        ",
"           oXo..........##&=****&&&&&&&&&&&&%&&&*&&&&&&&&%%%$%$$$##$@#@#$$$%#...X.XO&%$=        ",
"           Xoooo.........#$&********&&&***&&&&*&***&&&*&&&&&&&%%%%%$$$$@##$$.....o%$%%$         ",
"            Xoooooo........$%*&%&&***%&&&&&&&&&&&&%*&%&&&&&&&%&%&%%%%$%$@....oo#$#$#%$          ",
"             oooooOoooX......@%%$%%&%%%%&$%%&&%%%$%%%&$%%%$%%&%%$$$$@@OoooOoO@@##O#$@           ",
"               XoooOooOooooooooooooOooOoooOoooOOooOooooooOoo@Oo@oOOOO@OOO@OOOOOO@#%             ",
"                  oooooooOoooooooooOoooooooOOooooOOoooooooOoooOOOOOOOOOOOOOOO@Oo=               ",
"                     $Xooooooooooooooo.oooooooooooOoOOoooooooOOOoOOOOOOOOOOOoo                  ",
"                            #@.......o...o.ooXo...o.oo.oo..ooooooX.oO@*                         ",
"                                                                                                ",
"                                                                                                ",
"                                                                                                ",
"                                                                                                ",
"                                                                                                ",
"                                                                                                ",
"                                                                                                ",
"                                                                                                ",
"                                                                                                ",
"                                                                                                ",
"                                                                                                ",
"                                                                                                ",
"                                                                                                ",
"                                                                                                ",
"                                                                                                ",
"                                                                                                ",
"                                                                                                ",
"                                                                                                ",
"                                                                                                ",
"                                                                                                ",
"                                                                                                ",
"                                                                                                ",
"                                                                                                ",
"                                                                                                ",
"                                                                                                ",
"                                                                                                ",
"                                                                                                ",
"                                                                                                ",
"                                                                                                ",
"                                                                                                "
};
