/* XPM */
static char *_4628dc0729e4494fefe1732255601d9gGuRUEQh2J7b3EqX[] = {
/* columns rows colors chars-per-pixel */
"96 128 5 1 ",
"  c None",
". c #255D43",
"X c #317448",
"o c #3E904C",
"O c #51A64A",
/* pixels */
"                                                                  OOOoXXX...XX..ooOOOoXoOOOooOO ",
"                                                                oXoOOooooXX.XooooXOOoXX..OOooOOO",
"            OO  o                                               OoXooooOOoXOOoooX..oXX.oo..oXoOO",
"            OOOooo    OOOO                                      Oooo.XoOOoOOO.OOXXX...ooOOXXXooo",
"             OOXoooX OOOO                                       ooOOo.XoooOO..OOOXX.XXoOOOoXXXoX",
"      OOO  oooXXooXXoOOO                                        XoOOo....ooXooXOOoXXXXoOOoXooXXX",
"       OOOoOOooXXXooXoOOo                                       OXoo.oo.XX.ooooXooXOO....XoOOoXO",
"        OOoOOOoooooOOXooo                                       OoXXooOOXXoOOoXXXXOOOXX.XooOOOoO",
"        XXXoOOooXoOOOXXoX                                       oXOO.oOOOoOOOXoo.XOOooXXooXoOO.o",
"       XoOOoXoXo.XOOoXXXX                                       .OOO.XoOOoOOX.OOX.ooooXo...XoXoo",
"      oOOOOoOOoX..XoX..oOOOo                                    .OOoX.XXXooo.XOOOooOOoXooXX..ooo",
"     XoOOOooOOOooXXoo.oOOOOoo                                   ..o.oo.XXOOXXXXOOooOOO.XoooXXXX.",
"     XXooooooOOXoXOOoooOOooo                                    oOOXooX.OOOXXXXXooo.OOX..OOoOOX.",
"  OOOo.XXooXXoXo.oOOOoXoXXXX                                    oOOOo..oOOoXooo.Xoo.ooX.OOOoOOOo",
"  oOOOo.ooOOo.oo.ooOOoOOXXoOOO                                  XoOO.XXoooXoOOoXXX.XOOXoOOXooOOo",
"   oOOooXOOOoXooXXoooOOOooOOOOO                                 .OOXXOOoo.XOOOXX...OOO.Xoo.XX.oo",
"   X.oOOOoXXX.OOoXOOXooXoXXO .                                  OOO.XOOOXX.OOX.oXOOooX.OOX.XXX.X",
"    XXoOOXoX.OOOooOOOooXoOOX .                                  OOooXXOOooooo.ooOOOoXoXOOOXOOoXo",
"     X.oXoooXOOooooOOoXXOOOo X                                  ooooOO..OOoOOo.XOOX.ooooOOoOOOoX",
"     XoooOOooXo.XOOoXXXXOOo  X                                  XXoOOOXOOOXOOOo.Xo.XoOOXooXoOOo.",
"     oOOoOOOoXoooOOOoOOooOOo X                                  .XXOOXXOOo..OOo.XXooOOOXoOOoooo.",
"    oOOOXoOOXoOOooOOoOOOXOOO X                                  oo.oooXooXXX.XooooooOOo.XOOO.ooX",
"    oOOooooXXoOOOooXooOOoXOOoX                                  oOOXoo.XXOOoo.OOoOO.ooo..XOOX.Xo",
"    XooXooOOoooOOoooXXooXXoo X                                  OOOXXX...OOOoOOOOOO.XoX.OOX.XXoO",
"     XXXoOOOoXoooooXooOOoX   X                                  OOoooOOoXoOOoOOoOOoo.XXOOO..XXoO",
"     . X OOo..XoooX.oOOOoo  X                                   oo..OOOooX.ooooXooooX.oOOoo..X.o",
"     .   .oXXooO.X..oOOoo   X                                   .ooXOOoOo..XOOoXXooXOO.oooXXXoo.",
"     X   .  ooOOXX . oo.    X                                   oOOoooOooXXOOO..OoXOOOXXOO.ooOOo",
"     X   X   oOO   .   X   X                                    oOOOoooo.X.OOoX.OXXOOo.XOOOoOOOo",
"     X   X    Xo   X    X  X                                    XoOOoXXOOoXooooXOO.Xoo.X.OOoOOoX",
"   X X   X     X   X     XX                                      XooooXOOOoooOO.OOO.XXOOooo.XoX ",
"   .X          X                                                  ooOOoXOOXXOOO.XOO..OOOoOOoooo ",
"                     OOo    OO              OOo    o      o       O    O                        ",
"                 oOO OOOo  OOOo  OO   OOo  OOOo   oOO   oOOo     OOo  oOOo                      ",
"            OO  oOOOXoOOoooOOooXOOOoXoOOooXOOoOXooOOOXXoOOOoXXXOoOOOoXOOOooX   oo               ",
"            OOOooOOoXXXooXoooo.XOOooXooooooXoooOOoOOooXoOOoXXooOooOO.oOOooXooXoooo    OOOO      ",
"             OOXoooXOOoXooXooXo.XooOOXooOOooOOoOOoXooX.XoooXOOooXoo.XoooXXoOOoXooooX OOOO       ",
"      OOO  oooXXXoXoOOOXoOOXXoOOoXOOOo.OOOoXOOOooXOOo.oOOooOOOoXoXXoOOXooXoOOOoXooXXoOOO        ",
"       OOOoOOooXoo.XoOOXXOOO.oOOOoOOoooOOooooOO.oOOOoooOOOoOOoXOooX.OoXOOXooOOooXXooXoOOo       ",
"        OOoOOOooOOoXXooXooOO.XoOOOXoOOoXoooXXo.XXOOoOoXoOOooXXoOOOo.oXoOO.XooooooooOOXooo       ",
"        XXXoOOooOOO.XXXoOOoXX.XoOOoXOOXXooXXoOOo..XooOoXoooOOoXoOOOo.oooXoOOoOOoXoOOOXXoX       ",
"       XoOOoXoXooOOooooOOOoXoOOXXooX.XX.Xo.oOOOXXoo.ooX..ooOOOoXoOOoo.XXoOOOoOOO.XOOoXXXX       ",
"      oOOOOoOOoX.X.OOooOOoXXoOOOoXX.XXoO..XoOOX.oooX.X.oX.XXOO.XXoooXOOXoOOoXXOO..XoX..oOOOo    ",
"     XoOOOooOOOo..XOOOoooXX.XoOOooX.XoOoXXXXo..XooXoo.XXOOXX.oXOOXoX.OOO.ooXX.oooXXoo.oOOOOoo   ",
"     XXooooooOOXX..oOOXXX.XOO.oXoOOX.ooXXOOo.XOOXXoOOXooOOOXooOOOXX..oOOXOOo.XXooXOOoooOOooo    ",
"  OOOo.XXooXXoXooXX.ooXooX.OOO.XXOOOX.X.OOOo.XOOOXOOOXoooOOXooOOX..XX.ooXOOooX.X.oOOOoXoXXXX    ",
"  oOOOo.ooOOo.oooOOX.XoooX.oOOX..oOOo..XOOoXXXoOOXOOo.OOXooXOOXXoX.oooXX.XooOOXX.ooOOoOOXXoOOO  ",
"   oOOooXOOOoXooXOOO..ooX.XXooXX.XoooXooX.Xoo.XooXXooOOOo.XXOOOooOOooOO...XOOOooXXoooOOOooOOOOO ",
"    ooOOoOOoooXX..OOoX..XX..XXOOX..ooX...XoOOoo.XXooX.OOOXXXXOOoXOOOXOOOoooOOooooX.XoOOoooOOo   ",
"  oOOoOOoooooX..oo.oooXXoOO..OOOXOOXX.XXX..ooXXXXooOOXoOO.XX.ooXXXOOXoOOooooXoooo.ooXoooXoooo   ",
" oOOOoooXXOoX.OOooXXooX.oOOOXOOoOOOXoOOooX.XXXoooXoOOOXooOOo.XXoX..oooXooOOoX.XXXoOOoX..X.ooX   ",
" oOOXXXXXOoo.OOOXX..XX...oOO.ooXOOoXXOOOoX.XXoOOoX.oOO.XXOOOXXoo.XOOooX.OOOX.oOO.oOOOo.ooX.XoOO ",
"   XooOOXoOOoOOoooXOOooOO.ooo.X.XX.XXoOOoOO.XoOOOoXoooXoooOOo.ooXOOOoXXXOOoX.oOOXooOOoooOOXoOOOo",
"   ooOOOXoOooXoOOooOOOoOOOXoOO..OOX.XXXoOOOX.XoOOoXOOXoooXooo..XXOOoXX.XooX..ooXo.ooo.XoOOOoOOoo",
"   oXOOoXXooX.OOOoXoOOooOO.oOO.XOOOX...XOOoXXXooooOOOXXX.OOoXOOX..XX..XX.OOoXXX.oXXXXXoXoOOXOoo ",
"   XXXXX..oOOXOOXXX.oo.XXXXX.oOOoOOXOO.XoooX.XXXXoOOXX..OOOXXOOO.XoOOoXoOOOoX...oXX..oOOoooooo  ",
"   ooXoOO..OOOoX.OO.ooo.OOXXXoOOXoooOOOXXooXoooXoX.o..X.OOoX.oOOOXoOOOooOOoX.OOXo.XoXoOOOXXOOoo ",
"  oOOoOOOoXoOOooOOO.XooXOOO.XXoOXXooXOOoXoX.ooOOooX.OOoXooo..XooOXXoOOXXooo.OOOoXXoOO.oOOXOOOo  ",
"  oOOoOOooX..oooOOo..XoXoOOXOOXXOO.XXoooXXX.XoOOOoX.OOOXXX.OO.XX..XX.XX.XoXXOOooXoOOO.XoXoOOoX  ",
"  oooXooo.OO..XXooooOOX.XooXOOOXOO.XXOO.XOO.XXoOOXX.oOO.XXOOOXXOOOo.XX.Xooo.XooX.oOOoXXOOoooXoo ",
"   XooXX.XOOO.OO.XXoOOO...XXoOOoOoXXOOOoXOOOXXXX..XX.XXX.XOOo.XOOoOOX.XoOO.X..X.o.ooXXoOOOoXoooo",
"   oooXOOoXOOoOOOo.XoOO.OOoXXooooX.oOOooXoOOXX...oOO.XXXXXooX..oXoOOX.XOOO.XoooOOo..ooXoOOo.Xoo ",
"   ooXoOOoXoooXOOoo.XXXOOOo.XXXXX.XooooXXXooOOXX.OOOoXXOOoXX.XXX.Xoo.XoOOXXOOoOOOo.oOOoXoo.ooX  ",
"  ooOOoOOXXXo.Xooo.XOOXOOoXOOo.XX.XXXOO..XXOOOXXXOOooXOOOoX.XOOoX.XoOOooX.OOOoOOooXoOOOXXOOooo  ",
"   XOOOoXooXOO.XX..ooX...XoOOoo.X..ooX.ooXoOOoo.XXooX.OOOXXXXOOoXXooX.OOOXXXXOOo.ooooOOooOOOoo  ",
"  XXoOOooOOooo..XOOXX.XXX..ooXXXXOOXX.XXX.XooXXXXooOOXoOO.XX.ooXXooOOXoOO.XX.ooXX.XooXXXooOOoo  ",
"  XXXoooXOOOoX.XOOOXoOOooX.XXXooOOOXoOOoXX.XXXoooXoOOOXooOOo.XXooXoOOOXooOOo.XXOOoooXoOOXoXooX  ",
"  OOoooX.XOO.OOXOOoXXOOOoX.XXoOOOOoXXOOOoX.XXoOOoX.oOO.XXOOOXXoooX.oOO.XXOOOXXOOOoX.oOOOoXooX   ",
" oOOOoXOOoX.OOO.XX.XXoOOoOO.XoOOXX.XXoOOoOO.XoOOOoXoooXoooOOo.ooOoXoooXoooOOo.OOoXOOoOOooooX.   ",
" ooOOoOOOooXOOoXOOX.XXXoOOOX.XoOOOX.XXXoOOOX.XoOOoXOOXoooXooo..XOoXOOXoooXooo..oo.OOooooX.ooOO  ",
"  oooXOOooXX.oXXOOOX...XOOoXXXooOOOX...XOOoXXXooooOOOXXX.OOoXOOXooOOOXXX.OOoXOOXX.XoooXOOo.OOO  ",
"  XXXXoooXoOOX.XoOOXOO.XoooX.XXXoOOXOO.XoooX.XXXXoOOXX..OOOXXOOOXoOOXX..OOOXXOOOX.OOoX.OOOoOOo  ",
"  OOoX..X.OOO...XoooOOOXXooXoooXXoooOOOXXooXoooXoX.o..X.OOoX.oOOoX.o..X.OOoX.oOOXOOOX.XXOOoXoX  ",
"  OOOoXXX.OO.XooXXooXOOoXoX.ooOOXXooXOOoXoX.ooOOooX.OOoXooo..XooooX.OOoXooo..XoooOOoXooXoOOoo   ",
"  oOOoXOOXooXoooOO.XXoooXXX.XoOOOO.XXoooXXX.XoOOOoX.OOOXXX.OO.XXOOX.OOOXXX.OO.XXoooXooooOOOoX   ",
"   ooXoOOoX.XooOOO.XXOO.XOO.XXoOOO.XXOO.XOO.XXoOOXX.oOO.XXOOOXXOOOX.oOO.XXOOOXXOOoXXXoooOOooOO  ",
"   XX.XooX.oOOXOOoXXOOOoXOOOXXXXOoXXOOOoXOOOXXXX..XX.XXX.XOOo.XOO.XX.XXX.XOOo.XOOOXX.OOXooXoOOO ",
"   ooX.XXoXoOOOXoX.oOOooXoOOXX..oX.oOOooXoOOXX...oOO.XXXXXooX..o.oOO.XXXXXooX..oOO..OOOoXoXooOO ",
"  ooooXOOooXoOO.X.XooooXXXooOOXXX.XooooXXXooOOXX.OOOoXXOOoXX.XXX.OOOoXXOOoXX.XXXXX.XOOooXXooXoX ",
"   ooXOOOooX.oXXX.XXXOO..XXOOOXXX.XXXOO..XXOOOXXXOOooXOOOoX.XOOoXOOooXOOOoX.XOOo.OOXoooXXoOOoX  ",
"  XXXoOOooXXOO.XOOo.oOOO..oOOXooOOo.oOOO..oOOXooXXoo..OOoX.XOOOoXXoo..OOoX.XOOOoOOOXOOoXooOOOoo ",
"  XOOooooOOXOOOXOOoXooOO.Xoo.XoOOOoXooOO.Xoo.XoOOX.OOXXXXX.XOOoXOX.OOXXXXX.XOOoXOOo.OOO.ooXOOoo ",
"  OOOoOOXOO.oOOXooXXXooXXooXX.XOooXXXooXXooXX.XOO.OOOXXXXOOoo.XXO.OOOXXXXOOoo.XXoo.X.OOXXOOooOO ",
"  OOoXOOOXXXXooXXOO.XXXX.ooXX.XXXOO.XXXX.ooXX.XXXoOOoX.X.OOOoXX.XoOOoX.X.OOOoXOOX..OOooXOOOoOOO ",
"  XoX.oOOoXX...XOOO..XoX.XX..XX.OOO..XoX.XX..XX..oooXOO.XoOOXooX.oooXOO.XoOOXOOOoXOOOoooOOoXOO  ",
"  XooXoooX..OO..OOoX.OOXXoo.OOo.OOoX.OOXXoo.OOo...XX.OOOXooX.ooX..XX.OOOXooX.OOoXXOOo.ooooXooo  ",
"  oOOoXo...XOOOXoooXOOOXoOOoOOoXoooXOOOXoOOoOOoXXOOX.oOO.XXOOooXXOOX.oOO.XXOOXoX...oXXoX.ooOOOo ",
" oOOOoOOXooXoOOo.oo.OOoXOOOooo.X.oo.OOoXOOOooo.XoOOOXXooX.OOO..XoOOOXXooX.OOO..X.ooXoOO.oooOOOO ",
" oOOoOOOoooo.oooXXXXooXXOOoXXXXXXXXXooXXOOoXXXXoooOOo.XXXXOOo.OOooOOo.XXXXOOo.OOXoXooOOOooooOOO ",
"  oooOOoOOooXX.XXOOo.X.Xoo.oo.XXXOOo.X.Xoo.oo.XoX.oooXOOoXoo.OOOX.oooXOOoXoo.OOOX.XXooOOooXXo O ",
"  XXXoooOOOXXXX.oOOOoXooX..oooOOoOOOoXooX..oooOO..X.XXOOoXX.XOOX..X.XXOOoXX.XOOooXX.oooooXoXX   ",
"  ooXOOXXOO.XoOO.oOOoXoo.OO.XoOO.oOOoXoo.OO.XoOOOXXoOOoooXX.XooXOXXoOOoooXX.XoooooXXooo.XoOOX   ",
" OOooOOOXooo.OOO.XooXXXXOOOoXooO.XooXXXXOOOoXooOOXXoOOOXXXOOoXX.OXXoOOOXXXOOoXX.XX.XXo.XoOOOo   ",
" OOOooOOXoooXOOooXXXOOoXOOooXXXoXXXXOOoXOOooXXXooOO.oOO..OOOo...oOO.oOO..OOOo...X....XXooOOoX   ",
" oOOXoooXXo.XoooXXXOOOoXooX.OOoXXXXOOOoXXoX.OOoXOOO.oooXXOOoX.OOOOO.oooXXOOoX.OOX..oOOooooXXXX  ",
" XoXXooooXX.XXX...XOOoXXX..OOOoX..XOOoXoo..OOOoXOO.XXXOOXoooXOOOOO.XXXOOXoooXOOO.XooOOOoOOooXX  ",
"  XoOOOooX...X.X..XXOOOXooOOOoXOOOo.oOOO..oOOXooXXoo..OOoX.XOOOoO.oOOOXX.XOOo.ooooo..OOooOOoXo. ",
"   XoOOoXoOOO..XoOOXoOOXooOOoXoOOOoXooOO.Xoo.XoOOX.OOXXXXX.XOOoXOOoOOoX..XoooXXoXoOOXXXoOOOXX.  ",
"  OOooooXXoOoXXXoOOo.ooXoooXX.ooooXXXooXXooXX.XOO.OOOXXXXOOoo.XXOO.ooXXOO.XXOOoX.OOOXX.XOOoXOOo ",
" oOOOoOOoXXoooOOXoooOOXXXXXX..XoXOO.XXXX.ooXX.XXXoOOoX.X.OOOoXX.oo.XX.XOOo..OOoX.OOo.OOXooXOOOo ",
" ooOOoOOOo.XXoOOO.XXOOX.OOo.OO.XOOO..XoX.XX..XX..oooXOO.XoOOXooXooXoo..XooXXoo.OOoooOOOoXooOOoX ",
"  oooXoOOoOO.XoOOo.XX..OOOoXOOO.OOoX.OOXXoo.OOo...XX.OOOXooX.ooXXXOOoX..X.oOO.OOOooXOOo...oXoo  ",
"  ooooXooXOOO.oooXX.XX.OOoXXXOOooooXOOOXoOOoOOoXXOOX.oOO.XXOOooXXOOOoXXXX.OOOXOOXXOOo..XXXXooo  ",
" oooooX.XXoOOXXXOOoXOOXooo...Xoo.oo.OOoXOOOooo.XoOOOXXooX.OOO..X.OOoX.ooX.OOoXoo.XOOO.ooXoOOoX  ",
"  oOOoXXXoX.oXX.OOoXOOO..oXoX..XXXXXooXXOOoXXXXXooOOo.XXXXOOo.OOooo.XOOo.Xoo.oOO.ooOOooOOoOOOoo ",
"  XOOOoXooo.XoOOXX.XoOOoXoooOOXXXOOo.X.Xoo.oo.XXX.oooXOOoXoo.OOOXooXoOOoOOXX.OOOXOOo.oOOOoXOOoX ",
"  XXOOoooOOo.oOOO.OOXXooXOOoOOOXoOOOoXooX..oooOO..X.XXOOoXX.XOOXX.OOooXoOOOX.OOXOOO.XoOOoXooooo ",
"   XXoooOOOooXoOOOOOX.XXOOOXoOO..oOOoXoo.OO.XoOOOXXoOOoooXX.XooX.OOOoXOOoOOooXXoOOXoXXooXXXXooX ",
"  OOXXXoOOooo.X..OOoXoo.OOo.Xooo.XooXXXXOOOoXooOOXXoOOOXXXOOoXX.XOOoo.OOOooooX.oo.oOOXX.ooo.X.  ",
" oOOo.XXoooOOoXX.oo.oooXoooX.XooXXXXOOoXOOooXXXooOO.oOO..OOOo...XooXX.XOOooX.XXXXXoOOOXooOOoX.  ",
" XooXXoXooOOOo..XoXoOOXoXoXXooXXXXXOOOoXooX.OOoXOOO.oooXXOOoX.OOooXXooooXoOOoXX....oOOXoOOOoX.  ",
"  XXXoOOooOOoX.XXXXOOOXoooXXoooX..XOOoXXX..OOOoXOO.XXXOOXoooXOOOoOO.oOOoXoOOOo.oXXXXXXXoOOoXX.  ",
"   X.oOOOoXXX.OOXXOOOoXOOo...ooXOOoXX.oX.OOooOOooooXXOOooX.OOoo.OOOX.OOOo.XOOoXooXOOXooXoXXO .  ",
"    XXoOOXoX.OOOoX.XoXoOOOXXOOo.OOOoOOX.OOOoOOOoXoooXoooOOoOOOX.OOo.XoOOXXXXoXOOooOOOooXoOOX .  ",
"     X.oXoooXOOo..XXX.ooOOoOOOoXoOOoOOOoOOoXOOo.X.ooXX.oOOOoOO.XXX..ooXXoo..XOOOoooOOoXXOOOo X  ",
"     XoooOOooXo...XoooXXoooOOX...oooXOOoooX.Xooo...XX..ooOOoooXooXOOoo.oOOX..OOXXOOoXXXXOOo  X  ",
"     oOOoOOOoXooXXoOOoo.X...XXOOXX...oo.oo.ooXooXOO.X.XXooX.XXoOO.OOOo.oOOOoXX.ooOOOoOOooOOo X  ",
"    oOOOXoOOXoOOoXoOOOo.XXoOO.OOooXoo.X.XooOOo.XOOOoXooo..XoXXoOO.oOOo...OOooXOOooOOoOOOXOOO X  ",
"    oOOooooXXoOOOXXoOOoX.oOOOooOooOOooXX.XoOOO..OOo.oOOoo.oOO..ooXXoo..XXoooooOOOooXooOOoXOOoX  ",
"    XooXooOOoooOOXOOooOOooOOooooOoOOOXoooXXoOO.XXo.XoOOOooOOOoXOOoXX...ooXooXooOOoooXXooXXoo X  ",
"     XXXoOOOoXoooOOOooOOoooooXXOOOoOOooooX.XooooXXXXXoOO.oOOoooOOOoX.oXoooOOoXoooooXooOOoX   X  ",
"     . X OOo..XooOOoooooo.oXXoOOOOooXOOoo.oXooOOoXooXXoXXooooXooOOX.oo.ooOOOX.XXooX.oOOOoo  X   ",
"     .   .oXXooOOooXOOooXXoXooOO.XoXOOOoXooooOOOooXooOOoXXOOoX.oXX.XoOO.oOOoXooX.X..oOOoo   X   ",
"     X   .  ooOOOoXOOOoXXOOooooooX.oOOoXXoOOoOOoXOOXoOOOoXOOOo.XXoOOoOOOoooXooo.XX . oo.    X   ",
"     X   X   oOOoXXOOooXXOOOXoooXoX.oooooOOOoXXoOOOo oOOoXoOOo.XoOOOooOOXoOOooo    .   X   X    ",
"     X   X    XoX  XooX  oOOo oooooXooOOoOOoX .XOOoo  oo  oooo. oOOooo XXXOOOo     X    X  X    ",
"   X X   X     XX   XX    oo   oooX XoOO  XX  . Xoo        oo X  oooo      OO      X     XX     ",
"   .X          X     X                        X               X                                 "
};
