/* XPM */
static char *_d247785e56546fda6f7654e29b392353oJklwt2nERmFFTK[] = {
/* columns rows colors chars-per-pixel */
"96 96 5 1 ",
"  c None",
". c #216EA0",
"X c #297EAE",
"o c #419FCC",
"O c #F3FFFF",
/* pixels */                                                                                                                                                                                                                                                                                                                                                             ",
".Ooooooooooooooooooooooooooooooooooooooooooooooooooooooooooooooooooooooooooooooooooooooooooooooo",
".Ooooooooooooooooooooooooooooooooooooooooooooooooooooooooooooooooooooooooooooooooooooooooooooooo",
".OoooooooooooooooooooooooooooooooooooooooooooooooooooooooooooooooooooooooooooooooooooooooooooOoo",
".OoooooooooooooooooooooooooooooooooooooooooooooooooooooooooooooooooooooooooooooooooooooooooooOoo",
".XoooooooooooooooooooooooooooooooooooooooooooooooooooooooooooooooooooooooooooooooooooooooooooOoo",
".OoooooooooooooooooooooooooooooooooooooooooooooooooooooooooooooooooooooooooooooooooooooooooooOoo",
".OoooooooooooooooooooooooooooooooooooooooooooooooooooooooooooooooooooooooooooooooooooooooooooOoo",
".OoooooooooooooooooooooooooooooooooooooooooooooooooooooooooooooooooooooooooooooooooooooooooooOoo",
".oOooooooooooooooooooooooooooooooooooooooooooooooooooooooooooooooooooooooooooooooooooooooooooOoo",
".oOooooooooooooooooooooooooooooooooooooooooooooooooooooooooooooooooooooooooooooooooooooooooooOoo",
".oOooooooooooooooooooooooooooooooooooooooooooooooooooooooooooooooooooooooooooooooooooooooooooOoo",
".oOoooooooooooooooooooooooooooooooooooooooooooooooooooooooooooooooooooooooooooooooooooooooooooOo",
".oOoooooooooooooooooooooooooooooooooooooooooooooooooooooooooooooooooooooooooooooooooooooooooooOo",
".oOoooooooooooooooooooooooooooooooooooooooooooooooooooooooooooooooooooooooooooooooooooooooooooOo",
".oOoooooooooooooooooooooooooooooooooooooooooooooooooooooooooooooooooooooooooooooooooooooooooooOo",
".oOOooooooooooooooooooooooooooooooooooooooooooooooooooooooooooooooooooooooooooooooooooooooooooOo",
".oOOooooooooooooooooooooooooooooooooooooooooooooooooooooooooooooooooooooooooooooooooooooooooooOX",
".ooOOooooooooooooooooooooooooooooooooooooooooooooooooooooooooooooooooooooooooooooooooooooooooOoX",
"XoooOOooooooooooooooooooooooooooooooooooooooooooooooooooooooooooooooooooooooooooooooooooOooooOX.",
"XooOoOOooooooooooooooooooooooooooooooooooooooOooooooooooooooooooooooooooooooooooooooooooOoooOOX.",
"XooOOooOoOoooooooooooooooooooooooooooooooooooOoooooooooooooooooooooooooooooooooOoooooooooooOoOX.",
"XoooOOoOOOOoooooooOOOoOOOoOOOooooooooooooooooOOoooooooooooooooooooooooOooOoooOOoOoooooooOoooOoX.",
"XooooooooOOOooOooOOOoooooooooOooooooooooooooooOooooooooooooooOoooooOooOOooOOOOoooOooooOoOooOoXX.",
"XooooooooooOOOOOOOOooooXoooooOOooooooooooooooOOOOooooooooooooOoXOOooOoOOooooooooOoOOOOOoOOoOoX..",
"XoooooooooXooOOOoooooXXXXXoOooOOoooooooooooOOOooooOooooooooooOOoooOOoOOOOooooOOOoooooOooOOOoXX..",
"XoooooooooXXoooooXoXXXXXXXXXooooOoooooooooOOoOooooOOOoooOOooOOOOoooOOooooOOoOooooooooooOOOooXX..",
"Xooooooooo.XXoooXoXX.XXXooXXoooooOOOoooooOOOoooooXooOOOOoOOOoooooooooooooooooooXoooooooooooXX...",
"Xooooooooo.XoXXXooXXXXXooooXXooooooOOOoOoOooo..XXX.XOOOoooooooX.XXooooooXoooooo.ooooooooooXXX...",
"XooooooooX.XooooooXX.XoooooXXXoXoooooOOoOoooo..XXX.XoOooXXoooXX.XXXoooooXoooooo.XXoooooX.XXXX...",
"XooooooooX.XXooooXXX..oooooXXXXXXoooooooooooX..XXX.XooooX.XXXX..XXXXoooXXXooooX.ooXooXXX.XXXX...",
"XoooooooXX.XXXooXXXX..XoooXXXXXXXXXX.XooooXXX.XXXX.XXooXX.XXXX..XXXXXXXXXXXXXXX.ooXXXXXX.XXXX...",
"XooooooXXX.XXXXXXXXX..XXXXXXXXXXXXXX.XXXXXXXX.XX.X.XXXXXX.XXXX.XXXXXXXXXXXXXXXX.XXXXXXXX.XXXX...",
"XoooXXXXXXX..XXXXXXXX.XXXXXXXXXXX...XXXXXXXXX..XXXXXXXXXXXXXXX.XXXXXXXXXXXXX.X...XXXXXXXXXX.....",
"XoooXXXXXXX..XXXXXXXXXXXXXXXXXXXX.X.XXXXXXXXX..X.XXXXXXXXXXXXX.XXXXXXXXXXXXX.X...XXXXXXXXXX.....",
"XoooXoXXXXXX.XXX.XXXX.XXXXXXXXXXX.X.XXXXXXXXX..X.XXXXXXXXXXXXX.XXXXXXXXXXXXX.X...XXXXXXXXXX.....",
"XoooXoXXXXXX.XXX.XXXX.XXXXXXXXXXX.X.XXXXXXXXX..X.XXXXXXXXXXXXX.XXXXXXXXXXXXX.XX..XXXXXXXXXX.X...",
"XoooXoXXXXXX.XXX.XXXX.XXXXXXXXXXX.X.XXXXXXXXX..X.X.XXXXXXXXXXX.XXXXXXXXXXXXX.XX..XXXXXXXXXX.X...",
"XoooXooXXXXX.XXXXXXXX.XXXXXXXXXXX.XXXXXXXXXXXX.X.X.XXXXXXXXXXX.XXXXXXXXXXXXX.XX.XXXXXXXXXXX.X...",
"XoooXooXXXXXXXXXXXXXX.XXXXXXXXXXXXXXXXXXXXXXXX.X.X.XXXXXXXXXXX.XXXXXXXXXXXXX.XX.XXXXXXXXXXX.X...",
"XoooXooXXXXXXXXXXXXX..XXXXXXXXXXXXXXXXXXXXXXXX.X.X.XXXXXXXXXXX.XXXXXXXXXXXXX.XX.XXXXXXXXXXX.X...",
"XoooXooXXX.XXXXXXXXX..XXXXXXXXXXXXXX.XXXXXXXXX.X...XXXXXX.XXXX.XXXXXXXXXXXXX.XXXXXXXXXXXXXXXX...",
"XoooXooXXX.XXXXXXXXX..XXXXXXXXXXXXXX.XXXXXXXXX.X...XXXXXX.XXXX.XXXXXXXXXXXXX.XXXXXXXXXXXXXXXX...",
"XoooXooXXX.XXXXXXXXX..XXXXXXXXXXXXXX.XXXXXXXXX.X...XXXXXX.XXXXXXXXXXXXXXXXXX.XXXXXXXXXXXXXXXX...",
"XoooXooXXX.XXXXXXXXX..XXXXXXXXXXXXXX.XXXXXXXXX.X..XXXXXXX.XXXXXXXXXXXXXXXXXXXXX.XXXXXXXXXXXXX...",
"XoooXXoXXXXXXXXXXXXX.XXXXXXXXXXXXXXXXXXXXXXXXXXX..XXXXXXX.XXXXXXXXXXXXXXXXXXXXX.XXXXXXXXXXXXX...",
"XoooXXoXXX.XXXXXXXXX.XXXXXXXXXXXXXXXXXXXXXXXXXXX..XXXXXXXXXXXXXXXXXXXXXXXXXXXXX.XXXXXXXXXXXXX...",
"XoooXXXXXX.XXXXXXXXX.XXXXXXXXXXXXXoXXXXXXXXXXoXXX.XXXXXXXXXXXooXXXXXXXXXXXXXXoo.XXXXXXXX.XXXX...",
"XoooXXXXXXXXXXXXXXXX.XXXXXXXXXXXXoooXXXXXXXXoooXX.XXXXXXX.XXooooXXXXXXXXXXooooX.XoXXXooX.XXXo...",
"XooooXXXXXXXXXXXXXXXXXXXXXXXXXXXooXoooXXXXoooooXX.XoXXXXX.XoooooooXXooXXXoooooX.XooooooX.oooX...",
"XoooooXXXXooXXXXXXXXXXXXXXXXXX.ooo.oooooooooooooXXoooXXXXXoooooooooooooooooooXX.XoooooXX.XooX...",
"XoooooooooooooXXXXXXoooXXXXXXooooX.XooooooooooXooooXoooXXooooXXooooooooooooooXX.XXooooXX.XXXX...",
"XooooooooooXoooXXXXooooooooooooooX.XooooooooooXXooX.XoooooooXX.XooooooooooooXX..XXoooXX..XXXX...",
"XoooXoooooXXooooooooooooooooooooXX.XXoooooooooXXXXX.XXooooXXXX.XXooXXooooooXXX..XXXXXXX..XXXX...",
"XoooXXoooXXXoooooooooXooooooooooXX.XXooooooooXXXXXX.XXXXXXXXX..XXXXX.XooooXXXX..XXXXXXX..XXXX...",
"XoooXXXXXXXXXooooooooXXooooooooXX..XXXoooooooX.XXXX.XXX.XXXXX..XXXXX.XXXXXXXXX...XXXXXX..XXXX...",
"XoooXXXXXXXXXoooooooXXXXoooooo.XX..XXXXoooooXX.XXXX.XXX.XXXXX..XXXXX.XXXXXXXXX...XXXXXX..XX.X...",
"XoooXXXXXXXXXooooooXXXXXXoooX..XX..XXXXXoooXXX.XXXX.XXX.XXXXX..XXXXX.XXXXXXXXX...XXXXXX.XXX.X...",
"XoooXXXXXXXXXXooooXXXXXXXXXXX..XX..XXXXXXXXXXX.XXXX.XXX.XXXXX..XXXXX.XXXXXXXXX.X.XXXXXX.XXX.X...",
"XoooXXXXXXX.XXXXXXXXXXXXXXXXX.XXX..XXXXXXXXXXX.XXXX.XXX.XXXXX..XXXXX.XXXXXXXXX.X.XXXXXX.XXX.X...",
"XoooXXXXXXX.XXXXXXXXX.XXXXXXX.XXX..XXXXXXXXXX..XXXXXXXX.XXXXX..XXXXX.XXXXXXXXX.X.XXXXXX.XXX.X...",
"XoooXXXXXXX.XXXXXXXXXXXXXXXXX.XXX..XXXXXXXXXX..XXXXXXXX.XXXXX..XXXXX.XXXXXXXXX.X.XXXXXXXXXX.X...",
"XoooXXXXXXX.XXXXXXXXX.XXXXXXX.XXX...XXXXXXXXX..XXXXXXXXXXXXXX..XXXXXXXXXXXXXXX.X.XXXXXXXXXX.X...",
"XoooXXXXXXX..XXXXXXXX.XXXXXXXXXXX...XXXXXXXXX..XXXXXXXXXXXXXX..XXXXXXXXXXXXXXX...XXXXXXXXXX.X...",
"XoooXXXXXXX..XXXXXXXX.XXXXXXXXXXX...XXXXXXXXX..XXXXXXXXXXXXXXX.XXXXXXXXXXXXX.X...XXXXXXXXXX.X...",
"XoooXXXXXXX..XXXXXXXX.XXXXXXXXXXX...XXXXXXXXX..XXXXXXXXXXXXXXX.XXXXXXXXXXXXX.X...XXXXXXXXXX.....",
"XoooXXXXXXX..XXXXXXXXXXXXXXXXXXXX.X.XXXXXXXXX..X.XXXXXXXXXXXXX.XXXXXXXXXXXXX.X...XXXXXXXXXX.....",
"XoooXoXXXXXX.XXX.XXXX.XXXXXXXXXXX.X.XXXXXXXXX..X.XXXXXXXXXXXXX.XXXXXXXXXXXXX.X...XXXXXXXXXX.....",
"XoooXoXXXXXX.XXX.XXXX.XXXXXXXXXXX.X.XXXXXXXXX..X.XXXXXXXXXXXXX.XXXXXXXXXXXXX.XX..XXXXXXXXXX.X...",
"XoooXoXXXXXX.XXX.XXXX.XXXXXXXXXXX.X.XXXXXXXXX..X.X.XXXXXXXXXXX.XXXXXXXXXXXXX.XX..XXXXXXXXXX.X...",
"XoooXooXXXXX.XXXXXXXX.XXXXXXXXXXX.XXXXXXXXXXXX.X.X.XXXXXXXXXXX.XXXXXXXXXXXXX.XX.XXXXXXXXXXX.X...",
"XoooXooXXXXXXXXXXXXXX.XXXXXXXXXXXXXXXXXXXXXXXX.X.X.XOXXXXXXXXX.XXXXXXXXXXXXX.XX.XXXXXXXXXXX.X...",
"XoooXooXXXXXXXXXXXXX..XXXXXXXXXXXXXXXXXXXXXXXX.X.X.XXXXXXXXXXX.XXXXXXXXXXXXX.XX.XXXXXXXXXXX.X...",
"XoooXooXXX.XXXXXXXXX..XXXXXXXXXXXXXX.XXXXXXXXX.X...XXXXXX.XXXX.XXXXXXXXXXXXX.XXXXXXXXXXXXXXXX...",
"XoooXooXXX.XXXXXXXXX..XXXXXXXXXXXXXX.XXXXXXXXX.X...XXXXXX.XXXX.XXXXXXXXXXXXX.XXXXXXXXXXXXXXXX...",
"XoooXooXXX.XXXXXXXXX..XXXXXXXXXXXXXX.XXXXXXXXX.X...XXXXXX.XXXXXXXXXXXXXXXXXX.XXXXXXXXXXXXXXXX...",
"XoooXooXXX.XXXXXOXXX..XXXXXXXXXXXXXX.XXXXXXXXX.X..XXXXXXX.XXXXXXXXXXXXXXXXXXXXX.XXXXXXXXXXXXX...",
"XoooOOOOXXXXXXXXXXXX.XXXXXXXXXXXXXXXXXXOOOOXXXXXOOOOXXXXX.XXXXXXXXXXXXXXXXXXXXX.XXXXXXXXXXXXX...",
"XooOOOOOOX.XXXXXXXXX.OOOOXXXXXOOOXXXXXOOOOOOXXXOOOOOOXXXXXXXXOOOXXXXXXXXXXXXXXX.XXXXXXXXOOOOX...",
"XoOOOOOOOO.XXOOOOXXXOOOOOOXXXOOOOOoXXOOOOOOOOoOOOOOOOOXXXXXXOOOOOXXXXXOXOOXXXoo.XXOOOXXOOOOOO...",
"XOOOOOOOOOOXOOOOOOXOOOOOOOOXOOOOOOOoOOOOOOOOOOOOOOOOOOXXX.XXOOOOOOXXXXXOOOOoooX.XOOOOOOOOOOOOO..",
"XOOOOOOOOOOOOOOOOOOOOOOOOOOOOOOOOOOOOOOOOOOOOOOOOOOOOOXXOOOoOOOOOOOXooOOOOOOooX.OOOOOOOOOOOOOOO.",
"XOOOOOOOOOOOOOOOOOOOOOOOOOOOOOOOOOOOOOOOOOOOOOOOOOOOOOXOOOOOOOOOOOOoooOOOOOOoOOOOOOOOOOOOOOOOOO.",
"XOOOOOOOOOOOOOOOOOOOOOOOOOOOOOOOOOOOOOOOOOOOOOOOOOOOOOOOOOOOOOOOOOOOOoOOOOOOOOOOOOOOOOOOOOOOOOO.",
"XOOOOOOOOOOOOOOOOOOOOOOOOOOOOOOOOOOOOOOOOOOOOOOOOOOOOOOOOOOOOOOOOOOOOOOOOOOOOOOOOOOOOOOOOOOOOOO.",
"XOOOOOOOOOOOOOOOOOOOOOOOOOOOOOOOOOOOOOOOOOOOOOOOOOOOOOOOOOOOOOOOOOOOOOOOOOOOOOOOOOOOOOOOOOOOOOOO",
"XOOOOOOOOOOOOOOOOOOOOOOOOOOOOOOOOOOOOOOOOOOOOOOOOOOOOOOOOOOOOOOOOOOOOOOOOOOOOOOOOOOOOOOOOOOOOOOO",
"XOOOOOOOOOOOOOOOOOOOOOOOOOOOOOOOOOOOOOOOOOOOOOOOOOOOOOOOOOOOOOOOOOOOOOOOOOOOOOOOOOOOOOOOOOOOOOOO",
"XXOOOOOOOOOOOOOOOOOOOOOOOOOOOOOOOOOOOOOOOOOOOOOOOOOOOOXOOOOOOOOOXOOOOOOOOOOOOOOOOOOOOOOOOOOOOOOX",
"XXXOOOOOOOOOOOOOOOOOOOOOOOOOOOOOOOOOOOOOOXXXOOOOOOOOOXXXXXXOOOOOOXXXXOOOOOXXOOOOOOOOOOOOOOOOOOXX",
"oXXXOXXOOOOOXOOOOOOOOOXXXOOOOOOOOXXOOOOOXXXXXXXXXOXXXOXoOOoXXOOXoOOOXXOOOXXXXOOOOXOOOOOOOOOOOOXO",
"oooXXOOOXXXXXXOOOOOOXXXXXXOOOOOOXOXXXXXXooooXXXOOOoOOooooooooXXXoooooXXXXoooXXXXooXOOOOXXXOOOXXO",
"ooooooooooooooXOOXXXXXooooXXXXXXoooOOOoooOOoooooooooooooooooooooooOoooooooOooooooooXXXXooXXXXoOo",
"ooooooooooooooooooooooooOOOooooooOooooooOooooooooOooooooOOOooooooooOoOOOoooOOoOOoooooooooooooooo",
"oooooooooooooooooooOOOOooooooooooooOOOOoooooooooOooooOOooooooooooooooooooooooooooooooooooooooooo",
"oooooooooooooooooooooooooooooooooooooooooooOOoooooooooooooooooooooooooooooOoOOOooooooooooooooooo",
"oooooooooOOoOooOooooooooooOoOooOoooooooooooooooooooooooooooooooooooooooooooooooooooooooooooooOoo"
};
