/* XPM */
static char *_d247785e56546fda6f7654e29b392353oJklwt2nERmFFTK[] = {
/* columns rows colors chars-per-pixel */
"96 96 5 1 ",
"  c None",
". c #216EA0",
"X c #297EAE",
"o c #419FCC",
"O c #F3FFFF",
/* pixels */                                                                                                                                                                                                                                                                                                                                                             ",
".XOoooooooooooooooooooooooooooooooooooooooooooooooooooooooooooooooooooooooooooooooooooooooooooOo",
".XOoooooooooooooooooooooooooooooooooooooooooooooooooooooooooooooooooooooooooooooooooooooooooooOo",
".XooooooooooooooooooooooooooooooooooooooooooooooooooooooooooooooooooooooooooooooooooooooooooooOo",
".XOoooooooooooooooooooooooooooooooooooooooooooooooooooooooooooooooooooooooooooooooooooooooooooOo",
".XOoooooooooooooooooooooooooooooooooooooooooooooooooooooooooooooooooooooooooooooooooooooooooooOo",
".XOoooooooooooooooooooooooooooooooooooooooooooooooooooooooooooooooooooooooooooooooooooooooooooOo",
".oOoooooooooooooooooooooooooooooooooooooooooooooooooooooooooooooooooooooooooooooooooooooooooooOo",
".oOoooooooooooooooooooooooooooooooooooooooooooooooooooooooooooooooooooooooooooooooooooooooooooOo",
".oOoooooooooooooooooooooooooooooooooooooooooooooooooooooooooooooooooooooooooooooooooooooooooooOo",
".oOoooooooooooooooooooooooooooooooooooooooooooooooooooooooooooooooooooooooooooooooooooooooooooOo",
".oOoooooooooooooooooooooooooooooooooooooooooooooooooooooooooooooooooooooooooooooooooooooooooooOo",
".oooooooooooooooooooooooooooooooooooooooooooooooooooooooooooooooooooooooooooooooooooooooooooooOo",
".oOoooooooooooooooooooooooooooooooooooooooooooooooooooooooooooooooooooooooooooooooooooooooooooOo",
".oOoooooooooooooooooooooooooooooooooooooooooooooooooooooooooooooooooooooooooooooooooooooooooooOo",
".oOOooooooooooooooooooooooooooooooooooooooooooooooooooooooooooooooooooooooooooooooooooooooooooOo",
".oOOooooooooooooooooooooooooooooooooooooooooooooooooooooooooooooooooooooooooooooooooooooooooooOo",
".oOOoooooooooooooooooooooooooooooooooooooooooooooooooooooooooooooooooooooooooooooooooooOoooooOoX",
".ooOOooooooooooooooooooooooooooooooooooooooooooooooooooooooooooooooooooooooooooooooooooOoooooOoX",
"XooOOOooooooooooooooooooooooooooooooooooooooooooooooooooooooooooooooooooooOooooooooooooOOoooOoX.",
"XooOOOOoooooooooooooooooooooooooooooooooooooooooooOoooooOoooooooooOooooooOOoooooOoooooooOoOOOoX.",
"XoooOOoOoOoooooooooooooooooooooooooooooooooooOooooOOooooOooooooooOoOOoOOOoOOoooOOOooooOoOOOOooX.",
"XooooooOOoooooooooooooooooOOOoooooooooooooooOOOooOOOOOooOOoooooooOoooOoooooOOOOoOOOooOoooOOoooX.",
"XoooooooooOoooooooOOoooooOOoOOooOooooooooooooOoOOooOOoooOOooooOoOOoooooXooooooooooOOOooXoooooXX.",
"XooooooooooOOoooOOooOooXoOoOoOoOOOoooooooooOoXoooXXooOOooOOOoOoXOooXooooooXooooooXoooooXooooXX..",
"XoooooooooXoOOoOOooooXXoOXoooooOOOOOOoooooOooXooooXXXXooooOOOooXoXXXoooXoooXooooXoooooXXXooXXX..",
"XooooooOXoXoOOOOoXoXXXoOooXooooooOOOoOOOOOoooXXooXXXXoooXoooooX.oXXXXXXXXoXXXXXXXXoooXXXXXXXXX..",
"XoooooooXo.ooOOooXXXXXooooXXooooooooooOOOoooXX.XXX.XoooooXoooXX.XXXXXXXXXXXXXXX.XXXXXXXX.XXXX...",
"XoooooooXX.XoooooXXX.XooooXXXXoXooooooooooooX..XXX.XooooXXXXXXX.XXXXXXXXXXXXXXX.XXXXXXXX.XXXX...",
"XooooooXoX.XXoooXXXXXXooooXXXXXXooooXooooooXX..XXX.XXooXXXXXXXX.XXXXXXXXXXXXXXX.XXXXXXXX.XXXX...",
"XoooooXoXX.XXXXXXXXX.XXooXXXXXXXXooXXoooooXXX..XXX.XXXXXX.XXXX..XXXXXXXXXXXXXXX.XXXXXXXX.XXXX...",
"XoooooXXXX.XXXXXXXXX..XXXXXXXXXXXXXX.XoooXXXX.XXXX.XXXXXX.XXXX..XXXXXXXXXXXXXXX.XXXXXXXX.XXXX...",
"XoooooXXXX.XXXXXXXXX..XXXXXXXXXXXXXX.XXXXXXXX.XX.X.XXXXXX.XXXX.XXXXXXXXXXXXXXXX.XXXXXXXX.XXXX...",
"XoooXooXXX.XXXXXXXXX..XXXXXXXXXXXXXX.XXXXXXXXX.X...XXXXXX.XXXX.XXXXXXXXXXXXX.XXXXXXXXXXXXXXXX...",
"XoooXooXXX.XXXXXXXXX..XXXXXXXXXXXXXX.XXXXXXXXX.X...XXXXXX.XXXX.XXXXXXXXXXXXX.XXXXXXXXXXXXXXXX...",
"XoooXooXXX.XXXXXXXXX..XXXXXXXXXXXXXX.XXXXXXXXX.X...XXXXXX.XXXXXXXXXXXXXXXXXX.XXXXXXXXXXXXXXXX...",
"XoooXooXXX.XXXXXXXXX..XXXXXXXXXXXXXX.XXXXXXXXX.X..XXXXXXX.XXXXXXXXXXXXXXXXXXXXX.XXXXXXXXXXXXX...",
"XoooXXoXXXXXXXXXXXXX.XXXXXXXXXXXXXXXXXXXXXXXXXXX..XXXXXXX.XXXXXXXXXXXXXXXXXXXXX.XXXXXXXXXXXXX...",
"XoooXXoXXX.XXXXXXXXX.XXXXXXXXXXXXXXXXXXXXXXXXXXX..XXXXXXXXXXXXXXXXXXXXXXXXXXXXX.XXXXXXXXXXXXX...",
"XoooXXXXXX.XXXXXXXXX.XXXXXXXXXXXXXoXXXXXXXXXXoXXX.XXXXXXXXXXXooXXXXXXXXXXXXXXoo.XXXXXXXX.XXXX...",
"XoooXXXXXXXXXXXXXXXX.XXXXXXXXXXXXoooXXXXXXXXoooXX.XXXXXXX.XXooooXXXXXXXXXXooooX.XoXXXooX.XXXo...",
"XooooXXXXXXXXXXXXXXXXXXXXXXXXXXXooXoooXXXXoooooXX.XoXXXXX.XoooooooXXooXXXoooooX.XooooooX.oooX...",
"XoooooXXXXooXXXXXXXXXXXXXXXXXX.ooo.oooooooooooooXXoooXXXXXoooooooooooooooooooXX.XoooooXX.XooX...",
"XoooooooooooooXXXXXXoooXXXXXXooooX.XooooooooooXooooXoooXXooooXXooooooooooooooXX.XXooooXX.XXXX...",
"XooooooooooXoooXXXXooooooooooooooX.XooooooooooXXooX.XoooooooXX.XooooooooooooXX..XXoooXX..XXXX...",
"XoooXoooooXXooooooooooooooooooooXX.XXoooooooooXXXXX.XXooooXXXX.XXooXXooooooXXX..XXXXXXX..XXXX...",
"XoooXXoooXXXoooooooooXooooooooooXX.XXooooooooXXXXXX.XXXXXXXXX..XXXXX.XooooXXXX..XXXXXXX..XXXX...",
"XoooXXXXXXXXXooooooooXXooooooooXX..XXXoooooooX.XXXX.XXX.XXXXX..XXXXX.XXXXXXXXX...XXXXXX..XXXX...",
"XoooXXXXXXXXXoooooooXXXXoooooo.XX..XXXXoooooXX.XXXX.XXX.XXXXX..XXXXX.XXXXXXXXX...XXXXXX..XX.X...",
"XoooXXXXXXXXXooooooXXXXXXoooX..XX..XXXXXoooXXX.XXXX.XXX.XXXXX..XXXXX.XXXXXXXXX...XXXXXX.XXX.X...",
"XoooXXXXXXXXXXooooXXXXXXXXXXX..XX..XXXXXXXXXXX.XXXX.XXX.XXXXX..XXXXX.XXXXXXXXX.X.XXXXXX.XXX.X...",
"XoooXXXXXXX.XXXXXXXXXXXXXXXXX.XXX..XXXXXXXXXXX.XXXX.XXX.XXXXX..XXXXX.XXXXXXXXX.X.XXXXXX.XXX.X...",
"XoooXXXXXXX.XXXXXXXXX.XXXXXXX.XXX..XXXXXXXXXX..XXXXXXXX.XXXXX..XXXXX.XXXXXXXXX.X.XXXXXX.XXX.X...",
"XoooXXXXXXX.XXXXXXXXXXXXXXXXX.XXX..XXXXXXXXXX..XXXXXXXX.XXXXX..XXXXX.XXXXXXXXX.X.XXXXXXXXXX.X...",
"XoooXXXXXXX.XXXXXXXXX.XXXXXXX.XXX...XXXXXXXXX..XXXXXXXXXXXXXX..XXXXXXXXXXXXXXX.X.XXXXXXXXXX.X...",
"XoooXXXXXXX..XXXXXXXX.XXXXXXXXXXX...XXXXXXXXX..XXXXXXXXXXXXXX..XXXXXXXXXXXXXXX...XXXXXXXXXX.X...",
"XoooXXXXXXX..XXXXXXXX.XXXXXXXXXXX...XXXXXXXXX..XXXXXXXXXXXXXXX.XXXXXXXXXXXXX.X...XXXXXXXXXX.X...",
"XoooXXXXXXX..XXXXXXXX.XXXXXXXXXXX...XXXXXXXXX..XXXXXXXXXXXXXXX.XXXXXXXXXXXXX.X...XXXXXXXXXX.....",
"XoooXXXXXXX..XXXXXXXXXXXXXXXXXXXX.X.XXXXXXXXX..X.XXXXXXXXXXXXX.XXXXXXXXXXXXX.X...XXXXXXXXXX.....",
"XoooXoXXXXXX.XXX.XXXX.XXXXXXXXXXX.X.XXXXXXXXX..X.XXXXXXXXXXXXX.XXXXXXXXXXXXX.X...XXXXXXXXXX.....",
"XoooXoXXXXXX.XXX.XXXX.XXXXXXXXXXX.X.XXXXXXXXX..X.XXXXXXXXXXXXX.XXXXXXXXXXXXX.XX..XXXXXXXXXX.X...",
"XoooXoXXXXXX.XXX.XXXX.XXXXXXXXXXX.X.XXXXXXXXX..X.X.XXXXXXXXXXX.XXXXXXXXXXXXX.XX..XXXXXXXXXX.X...",
"XoooXooXXXXX.XXXXXXXX.XXXXXXXXXXX.XXXXXXXXXXXX.X.X.XXXXXXXXXXX.XXXXXXXXXXXXX.XX.XXXXXXXXXXX.X...",
"XoooXooXXXXXXXXXXXXXX.XXXXXXXXXXXXXXXXXXXXXXXX.X.X.XXXXXXXXXXX.XXXXXXXXXXXXX.XX.XXXXXXXXXXX.X...",
"XoooXooXXXXXXXXXXXXX..XXXXXXXXXXXXXXXXXXXXXXXX.X.X.XXXXXXXXXXX.XXXXXXXXXXXXX.XX.XXXXXXXXXXX.X...",
"XoooXooXXX.XXXXXXXXX..XXXXXXXXXXXXXX.XXXXXXXXX.X...XXXXXX.XXXX.XXXXXXXXXXXXX.XXXXXXXXXXXXXXXX...",
"XoooXooXXX.XXXXXXXXX..XXXXXXXXXXXXXX.XXXXXXXXX.X...XXXXXX.XXXX.XXXXXXXXXXXXX.XXXXXXXXXXXXXXXX...",
"XoooXooXXX.XXXXXXXXX..XXXXXXXXXXXXXX.XXXXXXXXX.X...XXXXXX.XXXXXXXXXXXXXXXXXX.XXXXXXXXXXXXXXXX...",
"XoooXooXXX.XXXXXXXXX..XXXXXXXXXXXXXX.XXXXXXXXX.X..XXXXXXX.XXXXXXXXXXXXXXXXXXXXX.XXXXXXXXXXXXX...",
"XoooXXoXXXXXXXXXXXXX.XXXXXXXXXXXXXXXXXXXXXXXXXXX..XXXXXXX.XXXXXXXXXXXXXXXXXXXXX.XXXXXXXXXXXXX...",
"XoooXXoXXX.XXXXXXXXX.XXXXXXXXXXXXXXXOXXXXXXXXXXX..XXXXXXXXXXXXXXXXXXXXXXXXXXXXX.XXXXXXXXXXXXX...",
"XoooXXXXXX.XXXXXXXXX.XXXXOXXXXXXXXoXXXXXXXXXXoXXX.XXXXXXXXXXXooXXXXXXXXXXXXXXoo.XXXXXXXX.XXXX...",
"XoooXXXXXXXXXXXXXXXX.XXXXXXXXXXXXoooXXXXXXXXoooXX.XXXXXXX.XXooooXXXXXXXXXXooooX.XoXXXooX.XXXo...",
"XooooXXXXXXXXXXXXXXXXXXXXXXXXXXXooXoooXXXXoooooXX.XoXXXXX.XoooooooXXooXXXoooooX.XooooooX.oooX...",
"XoooooXXXXooXXXXXXXXXXXXXXXXXX.ooo.oooooooooooooXXooOXXXXXoooooooooooooooooooXX.XoooooXO.XooX...",
"XoooooooooooooXXXXXXoooXXXXXXooooX.XooooooooooXoOOOOoooXXooooXXooooooooooooooXX.XXooooXX.XXXX...",
"XooooooooooXoooXXXXooooooooooooooX.XooooooooooXOOOOOOoooooooXX.XooooooooooooXX..XXoooXX..XXXX...",
"XoooXooooOXXoOOOOoooooooooooooOOOO.XXoooooooooOOOOOOOOOOooXXXOOOOooXXooOOOOXXX..XXOOOOX..XXXX...",
"XoooOOOOoXXXOOOOOOoooXoooooooOOOOOOXXooOOOOooOOOOOOOOOOOOXXXOOOOOOXX.XOOOOOOXX..XOOOOOO..XXXX...",
"XooOOOOOOXXOOOOOOOOooOOOOoooOOOOOOOOXXOOOOOOoOOOOOOOOOOOOOOOOOOOOOOX.OOOOOOOOX..OOOOOOOO.XOOO...",
"XoOOOOOOOOOOOOOOOOOOOOOOOOoOOOOOOOOOOOOOOOOOOOOOOOOOOOOOOOOOOOOOOOOOOOOOOOOOOOOOOOOOOOOO.OOOOO..",
"XOOOOOOOOOOOOOOOOOOOOOOOOOOOOOOOOOOOOOOOOOOOOOOOOOOOOOOOOOOOOOOOOOOOOOOOOOOOOOOOOOOOOOOOOOOOOOO.",
"XOOOOOOOOOOOOOOOOOOOOOOOOOOOOOOOOOOOOOOOOOOOOOOOOOOOOOOOOOOOOOOOOOOOOOOOOOOOOOOOOOOOOOOOOOOOOOO.",
"XOOOOOOOOOOOOOOOOOOOOOOOOOOOOOOOOOOOOOOOOOOOOOOOOOOOOOOOOOOOOOOOOOOOOOOOOOOOOOOOOOOOOOOOOOOOOOO.",
"XOOOOOOOOOOOOOOOOOOOOOOOOOOOOOOOOOOOOOOOOOOOOOOOOOOOOOOOOOOOOOOOOOOOOOOOOOOOOOOOOOOOOOOOOOOOOOO.",
"XOOOOOOOOOOOOOOOOOOOOOOOOOOOOOOOOOOOOOOOOOOOOOOOOOOOOOOOOOOOOOOOOOOOOOOOOOOOOOOOOOOOOOOOOOOOOOO.",
"XXOOOOOOOOOOOOOOOOOOOOOOOOOOOOOOOOOOOOOOOOOOOOOOOOOOOOOOOOOOOOOOXOOOOOOOOOOOOOOOOOOOOOOOOOOOOOO.",
"oXXOOOOOOOOOOOOOOOOOOOOOOOOOOOOOOOOOOOOOOOOOOOOOOOOOOOOOOOOOOOOXXXXXXOOOOOOOOOOOOOOOOOOOOOOOOOX.",
"ooXXXOOOOXXXOOXOOOOOOOOOOOOOOOOOXOOOOOOOXOOOOXXOOOOOOOOXOOOOOXXXXoooXOOOOXXXXOOOOXOOOOOOOOOOOOXX",
"ooooXXOOXXooXXXOOOOOOOOOOXOOXXXooXOOOOXXXXOOXXXXOOOOXXXXXXXXXXooooOooXXXXXXooXXXXXXOOOOXXXOOOXXo",
"ooooooXXXooooooXOOOOOXXXXoXXXoooOoXXXXoOoXXXXooXXXXXXoOOoOoooooooooOooooOooOoooooooXXXoooXXXXooo",
"ooooooooooooooooXXOXXooOOoooooooooOOOOooooooooooooooOOooooooooooooooOOOoooooOOOooooooooooooooooo",
"ooooooooooooooooooXOOOooooooooooooooooooooooooooOooooooooooooooooooooooooooooooooooooooooooooooo",
"ooooooooOOoooooooooXXooooooooooooooooooooooOOoOooooooooooooooooooooooooooooOOooOOooooooooooooooo",
"ooooooooooOOOoOOoOooooooooOoooooooooooooooooooooooooooooooooooooooooooooooooooooooooooooooooOooo",
"oooooooooooooooooooooooooooOOoOoooooooooooOOooooooooooooooooooOooooooooooooooooooooooooOOoOooooo",
"ooooooooooooooooooooooooooooooooOOooooooOooooOoooooooooooOooOoooOooooooooooooooooooooooooooooooo"
};
